<svg width="24" height="24" viewBox="0 0 24 24" fill="none" xmlns="http://www.w3.org/2000/svg">
<path d="M11.1501 5.19002L10.3701 4.41C9.90008 3.94 9.90008 3.18004 10.3701 2.71004L11.1501 1.93001C11.6201 1.46001 12.3801 1.46001 12.8501 1.93001L13.6301 2.71004C14.1001 3.18004 14.1001 3.94 13.6301 4.41L12.8501 5.19002C12.3801 5.66002 11.6201 5.66002 11.1501 5.19002Z" fill="#292D32"/>
<path d="M12.0001 5.91C11.6001 5.91 11.1901 5.76004 10.8901 5.45004L10.1101 4.67001C9.50009 4.06001 9.50009 3.06003 10.1101 2.44003L10.8901 1.66C11.4801 1.06 12.5201 1.07 13.1201 1.66L13.9001 2.44003C14.5101 3.05003 14.5101 4.05001 13.9001 4.67001L13.1201 5.45004C12.8101 5.76004 12.4001 5.91 12.0001 5.91ZM12.0001 1.96005C11.7901 1.96005 11.5801 2.04004 11.4201 2.20004L10.6401 2.98001C10.3201 3.30001 10.3201 3.83005 10.6401 4.15005L11.4201 4.93002C11.7401 5.25002 12.2601 5.25002 12.5901 4.93002L13.3701 4.15005C13.6901 3.83005 13.6901 3.31001 13.3701 2.98001L12.5901 2.20004C12.4201 2.04004 12.2101 1.96005 12.0001 1.96005Z" fill="#292D32"/>
<path d="M19.45 9.81H20.55C21.21 9.81 21.75 10.35 21.75 11.01V12.11C21.75 12.77 21.21 13.31 20.55 13.31H19.45C18.79 13.31 18.25 12.77 18.25 12.11V11.01C18.25 10.35 18.79 9.81 19.45 9.81Z" fill="#292D32"/>
<path d="M20.5501 13.69H19.4501C18.5801 13.69 17.8701 12.98 17.8701 12.11V11.01C17.8701 10.14 18.5801 9.42999 19.4501 9.42999H20.5501C21.4201 9.42999 22.1301 10.14 22.1301 11.01V12.11C22.1201 12.98 21.4201 13.69 20.5501 13.69ZM19.4501 10.19C18.9901 10.19 18.6201 10.56 18.6201 11.02V12.12C18.6201 12.58 18.9901 12.95 19.4501 12.95H20.5501C21.0101 12.95 21.3801 12.58 21.3801 12.12V11.02C21.3801 10.56 21.0101 10.19 20.5501 10.19H19.4501Z" fill="#292D32"/>
<path d="M4.55 9.81H3.45C2.79 9.81 2.25 10.35 2.25 11.01V12.11C2.25 12.77 2.79 13.31 3.45 13.31H4.55C5.21 13.31 5.75 12.77 5.75 12.11V11.01C5.75 10.35 5.21 9.81 4.55 9.81Z" fill="#292D32"/>
<path d="M4.55012 13.69H3.45011C2.58011 13.69 1.87012 12.98 1.87012 12.11V11.01C1.87012 10.14 2.58011 9.42999 3.45011 9.42999H4.55012C5.42012 9.42999 6.13011 10.14 6.13011 11.01V12.11C6.12011 12.98 5.42012 13.69 4.55012 13.69ZM3.45011 10.19C2.99011 10.19 2.62012 10.56 2.62012 11.02V12.12C2.62012 12.58 2.99011 12.95 3.45011 12.95H4.55012C5.01012 12.95 5.38011 12.58 5.38011 12.12V11.02C5.38011 10.56 5.01012 10.19 4.55012 10.19H3.45011Z" fill="#292D32"/>
<path fill-rule="evenodd" clip-rule="evenodd" d="M12.7097 4.26966C13.0026 3.97676 13.4774 3.97676 13.7703 4.26966L19.0703 9.56964C19.3632 9.86254 19.3632 10.3374 19.0703 10.6303C18.7774 10.9232 18.3026 10.9232 18.0097 10.6303L12.7097 5.33032C12.4168 5.03743 12.4168 4.56255 12.7097 4.26966Z" fill="#292D32"/>
<path fill-rule="evenodd" clip-rule="evenodd" d="M11.2903 4.26966C11.5832 4.56255 11.5832 5.03743 11.2903 5.33032L5.99029 10.6303C5.6974 10.9232 5.22252 10.9232 4.92963 10.6303C4.63674 10.3374 4.63674 9.86254 4.92963 9.56964L10.2296 4.26966C10.5225 3.97676 10.9974 3.97676 11.2903 4.26966Z" fill="#292D32"/>
<path d="M13.26 22.01H10.7C9.78004 22.01 9.10004 21.27 9.27004 20.47L9.69005 18.62H14.28L14.7 20.47C14.89 21.32 14.24 22.01 13.26 22.01Z" fill="#292D32"/>
<path opacity="0.4" d="M16.04 17.05L14.27 18.62H9.68002L7.91002 17.05C6.88002 16.21 6.88002 15.56 7.66002 14.57L10.78 10.63C11 10.36 11.25 10.17 11.52 10.08C11.81 9.98 12.13 9.98 12.42 10.08C12.69 10.18 12.94 10.36 13.16 10.63L16.28 14.57C17.07 15.56 17.03 16.18 16.04 17.05Z" fill="#292D32"/>
</svg>
