<svg width="24" height="24" viewBox="0 0 24 24" fill="none" xmlns="http://www.w3.org/2000/svg">
<path d="M18.02 18.9601C19.74 17.8001 19.74 17.8001 19.74 15.9801V11.0101C19.74 9.19005 19.74 9.19005 18.02 8.03005L13.29 5.30005C12.58 4.89005 11.42 4.89005 10.71 5.30005L5.98001 8.04005C4.26001 9.20005 4.26001 9.20005 4.26001 11.0201V15.9901C4.26001 17.8101 4.26001 17.8101 5.98001 18.9701L10.71 21.7001C11.42 22.1101 12.58 22.1101 13.29 21.7001L14.81 20.8201" stroke="#292D32" stroke-width="1.5" stroke-linecap="round" stroke-linejoin="round"/>
<path d="M17.5 7.63V5C17.5 3 16.5 2 14.5 2H9.5C7.5 2 6.5 3 6.5 5V7.56" stroke="#292D32" stroke-width="1.5" stroke-linecap="round" stroke-linejoin="round"/>
<path d="M12.28 16.42C12.13 16.36 11.88 16.36 11.73 16.42L10.75 16.81C10.15 17.05 9.69003 16.71 9.73003 16.07L9.79003 15.02C9.80003 14.86 9.72003 14.62 9.62003 14.5L8.95003 13.69C8.54003 13.19 8.71003 12.65 9.34003 12.49L10.36 12.23C10.52 12.19 10.72 12.04 10.8 11.91L11.37 11.02C11.72 10.47 12.29 10.47 12.64 11.02L13.21 11.91C13.3 12.05 13.5 12.19 13.65 12.23L14.67 12.49C15.3 12.65 15.47 13.19 15.06 13.69L14.39 14.5C14.29 14.63 14.21 14.86 14.22 15.02" stroke="#292D32" stroke-width="1.5" stroke-linecap="round" stroke-linejoin="round"/>
</svg>
