<svg width="24" height="24" viewBox="0 0 24 24" fill="none" xmlns="http://www.w3.org/2000/svg">
<path d="M9.6499 13.7999L11.2599 15.0499C11.4699 15.2599 11.9399 15.3598 12.2499 15.3598H14.2299C14.8499 15.3598 15.5299 14.8899 15.6899 14.2699L16.9399 10.4798C17.1999 9.74981 16.7299 9.12984 15.9499 9.12984H13.8699C13.5599 9.12984 13.2999 8.86984 13.3499 8.50984L13.6099 6.84981C13.7099 6.37981 13.3999 5.85979 12.9299 5.70979C12.5099 5.54979 11.9899 5.75978 11.7899 6.06978L9.65991 9.23982" stroke="#292D32" stroke-width="1.5" stroke-miterlimit="10"/>
<path d="M7 13.7998V8.70972C7 7.97972 7.30999 7.71973 8.03999 7.71973H8.56C9.29 7.71973 9.60001 7.97972 9.60001 8.70972V13.7998C9.60001 14.5298 9.29 14.7898 8.56 14.7898H8.03999C7.30999 14.7898 7 14.5298 7 13.7998Z" stroke="#292D32" stroke-width="1.5" stroke-linecap="round" stroke-linejoin="round"/>
<path d="M3 4.96997C3 3.32997 4.34 2 6 2H18C19.66 2 21 3.32997 21 4.96997V15.88C21 17.52 19.66 18.85 18 18.85H17.24C16.44 18.85 15.68 19.16 15.12 19.72L13.41 21.41C12.63 22.18 11.36 22.18 10.58 21.41L8.87 19.72C8.31 19.16 7.54 18.85 6.75 18.85H6C4.34 18.85 3 17.52 3 15.88V9.06995" stroke="#292D32" stroke-width="1.5" stroke-miterlimit="10" stroke-linecap="round" stroke-linejoin="round"/>
</svg>
