<svg width="24" height="24" viewBox="0 0 24 24" fill="none" xmlns="http://www.w3.org/2000/svg">
<path d="M13.2978 2.11561C13.0064 2.06432 12.75 2.29686 12.75 2.59278V5.45355C12.75 5.65191 12.8709 5.82657 13.0359 5.93677C13.5391 6.27295 13.87 6.8469 13.87 7.49999V9.49999C13.87 10.53 13.03 11.38 12 11.38C10.96 11.38 10.12 10.53 10.12 9.49999V7.49999C10.12 6.84671 10.4583 6.27261 10.9639 5.93647C11.1291 5.82665 11.25 5.65191 11.25 5.45355V2.59342C11.25 2.29727 10.9935 2.06463 10.7019 2.11606C9.15243 2.38927 7.76579 3.13421 6.7 4.19999C5.34 5.55999 4.5 7.43999 4.5 9.49999V14.5C4.5 18.63 7.87 22 12 22C16.13 22 19.5 18.63 19.5 14.5V9.49999C19.5 5.8095 16.813 2.73421 13.2978 2.11561Z" fill="#292D32"/>
</svg>
