<svg width="24" height="24" viewBox="0 0 24 24" fill="none" xmlns="http://www.w3.org/2000/svg">
<path d="M16.1502 12.83L14.4202 13.41C13.9402 13.57 13.5702 13.94 13.4102 14.42L12.8302 16.15C12.3402 17.64 10.2402 17.61 9.78018 16.12L7.83019 9.84C7.45019 8.59 8.60019 7.44001 9.83019 7.82001L16.1202 9.76999C17.6102 10.24 17.6302 12.34 16.1502 12.83Z" stroke="#292D32" stroke-width="1.5" stroke-linecap="round" stroke-linejoin="round"/>
<path d="M4 6C2.75 7.67 2 9.75 2 12C2 17.52 6.48 22 12 22C17.52 22 22 17.52 22 12C22 6.48 17.52 2 12 2C10.57 2 9.2 2.30001 7.97 2.85001" stroke="#292D32" stroke-width="1.5" stroke-linecap="round" stroke-linejoin="round"/>
</svg>
