<svg width="24" height="24" viewBox="0 0 24 24" fill="none" xmlns="http://www.w3.org/2000/svg">
<path opacity="0.4" d="M3.99012 14.6599L2.47013 13.1399C1.85013 12.5199 1.85013 11.4999 2.47013 10.8799L3.99012 9.3599C4.25012 9.0999 4.46012 8.58989 4.46012 8.22989V6.07993C4.46012 5.19993 5.18012 4.47989 6.06012 4.47989H8.21012C8.57012 4.47989 9.08012 4.26992 9.34012 4.00992L10.8601 2.4899C11.4801 1.8699 12.5001 1.8699 13.1201 2.4899L14.6401 4.00992C14.9001 4.26992 15.4101 4.47989 15.7701 4.47989H17.9201C18.8001 4.47989 19.5201 5.19993 19.5201 6.07993V8.22989C19.5201 8.58989 19.7301 9.0999 19.9901 9.3599L21.5101 10.8799C22.1301 11.4999 22.1301 12.5199 21.5101 13.1399L19.9901 14.6599C19.7301 14.9199 19.5201 15.4299 19.5201 15.7899V17.9399C19.5201 18.8199 18.8001 19.5399 17.9201 19.5399H15.7701C15.4101 19.5399 14.9001 19.7499 14.6401 20.0099L13.1201 21.5299C12.5001 22.1499 11.4801 22.1499 10.8601 21.5299L9.34012 20.0099C9.08012 19.7499 8.57012 19.5399 8.21012 19.5399H6.06012C5.18012 19.5399 4.46012 18.8199 4.46012 17.9399V15.7899C4.46012 15.4199 4.25012 14.9099 3.99012 14.6599Z" fill="#292D32"/>
<path d="M15 16C14.44 16 13.99 15.55 13.99 15C13.99 14.45 14.44 14 14.99 14C15.54 14 15.99 14.45 15.99 15C15.99 15.55 15.55 16 15 16Z" fill="#292D32"/>
<path d="M9.01001 10C8.45001 10 8 9.55 8 9C8 8.45 8.45 8 9 8C9.55 8 10 8.45 10 9C10 9.55 9.56001 10 9.01001 10Z" fill="#292D32"/>
<path d="M8.99994 15.75C8.80994 15.75 8.61994 15.68 8.46994 15.53C8.17994 15.24 8.17994 14.7599 8.46994 14.4699L14.4699 8.46994C14.7599 8.17994 15.2399 8.17994 15.5299 8.46994C15.8199 8.75994 15.8199 9.24 15.5299 9.53L9.52994 15.53C9.37994 15.68 9.18994 15.75 8.99994 15.75Z" fill="#292D32"/>
</svg>
