<svg width="24" height="24" viewBox="0 0 24 24" fill="none" xmlns="http://www.w3.org/2000/svg">
<path d="M14.5299 12.4201L13.0799 10.9701L14.4799 9.57005C14.7699 9.28005 14.7699 8.80005 14.4799 8.51005C14.1899 8.22005 13.7099 8.22005 13.4199 8.51005L12.0199 9.91005L10.5699 8.46005C10.2799 8.17005 9.79994 8.17005 9.50994 8.46005C9.21994 8.75005 9.21994 9.23005 9.50994 9.52005L10.9599 10.9701L9.46994 12.4601C9.17994 12.7501 9.17994 13.2301 9.46994 13.5201C9.61994 13.6701 9.80994 13.7401 9.99994 13.7401C10.1899 13.7401 10.3799 13.6701 10.5299 13.5201L12.0199 12.0301L13.4699 13.4801C13.6199 13.6301 13.8099 13.7001 13.9999 13.7001C14.1899 13.7001 14.3799 13.6301 14.5299 13.4801C14.8199 13.1901 14.8199 12.7201 14.5299 12.4201Z" fill="#292D32"/>
<path opacity="0.4" d="M20.6202 8.7C19.5802 4.07 15.5402 2 12.0002 2C12.0002 2 12.0002 2 11.9902 2C8.46024 2 4.43024 4.07 3.38024 8.69C2.20024 13.85 5.36024 18.22 8.22024 20.98C9.28024 22 10.6402 22.51 12.0002 22.51C13.3602 22.51 14.7202 22 15.7702 20.98C18.6302 18.22 21.7902 13.86 20.6202 8.7Z" fill="#292D32"/>
</svg>
