<svg width="24" height="24" viewBox="0 0 24 24" fill="none" xmlns="http://www.w3.org/2000/svg">
<path d="M7.94 14.51C7.32 14.28 6.77 13.83 6.42 13.19C5.62 11.73 6.11 9.83001 7.53 8.95001L9.86999 7.5C11.28 6.62 13.1 7.09999 13.9 8.54999C14.7 10.01 14.21 11.91 12.79 12.79L12.48 13.01" stroke="#292D32" stroke-width="1.5" stroke-linecap="round" stroke-linejoin="round"/>
<path d="M16.11 9.45001C16.73 9.68001 17.28 10.13 17.63 10.77C18.43 12.23 17.94 14.13 16.52 15.01L14.18 16.46C12.77 17.34 10.95 16.86 10.15 15.41C9.35001 13.95 9.84001 12.05 11.26 11.17L11.57 10.95" stroke="#292D32" stroke-width="1.5" stroke-linecap="round" stroke-linejoin="round"/>
<path d="M4 6C2.75 7.67 2 9.75 2 12C2 17.52 6.48 22 12 22C17.52 22 22 17.52 22 12C22 6.48 17.52 2 12 2C10.57 2 9.2 2.30001 7.97 2.85001" stroke="#292D32" stroke-width="1.5" stroke-linecap="round" stroke-linejoin="round"/>
</svg>
