<svg width="24" height="24" viewBox="0 0 24 24" fill="none" xmlns="http://www.w3.org/2000/svg">
<path d="M14 22.75H10C4.57 22.75 2.25 20.43 2.25 15V9C2.25 3.57 4.57 1.25 10 1.25H14C19.43 1.25 21.75 3.57 21.75 9V15C21.75 20.43 19.43 22.75 14 22.75ZM10 2.75C5.39 2.75 3.75 4.39 3.75 9V15C3.75 19.61 5.39 21.25 10 21.25H14C18.61 21.25 20.25 19.61 20.25 15V9C20.25 4.39 18.61 2.75 14 2.75H10Z" fill="#292D32"/>
<path d="M15 10.83H9C7.76 10.83 6.75 9.81996 6.75 8.57996V7.57996C6.75 6.33996 7.76 5.32996 9 5.32996H15C16.24 5.32996 17.25 6.33996 17.25 7.57996V8.57996C17.25 9.81996 16.24 10.83 15 10.83ZM9 6.82996C8.59 6.82996 8.25 7.16996 8.25 7.57996V8.57996C8.25 8.98996 8.59 9.32996 9 9.32996H15C15.41 9.32996 15.75 8.98996 15.75 8.57996V7.57996C15.75 7.16996 15.41 6.82996 15 6.82996H9Z" fill="#292D32"/>
<path d="M8.15016 14.9199C8.02016 14.9199 7.89016 14.8899 7.77016 14.8399C7.65016 14.7899 7.54016 14.7199 7.45016 14.6299C7.26016 14.4399 7.16016 14.1899 7.16016 13.9199C7.16016 13.7899 7.18016 13.6599 7.23016 13.5399C7.28016 13.4099 7.35016 13.3099 7.45016 13.2099C7.49016 13.1699 7.54016 13.1199 7.60016 13.0899C7.65016 13.0499 7.71016 13.0199 7.77016 12.9999C7.83016 12.9699 7.90016 12.9499 7.96016 12.9399C8.28016 12.8699 8.63016 12.9799 8.86016 13.2099C8.95016 13.2999 9.03016 13.4099 9.08016 13.5399C9.13016 13.6599 9.16016 13.7899 9.16016 13.9199C9.16016 14.1899 9.05016 14.4399 8.86016 14.6299C8.67016 14.8199 8.42016 14.9199 8.15016 14.9199Z" fill="#292D32"/>
<path d="M12.1602 14.92C11.8902 14.92 11.6402 14.82 11.4502 14.63C11.2602 14.44 11.1602 14.19 11.1602 13.92C11.1602 13.79 11.1802 13.66 11.2302 13.54C11.2802 13.41 11.3502 13.31 11.4502 13.21C11.4902 13.17 11.5402 13.12 11.6002 13.09C11.6502 13.05 11.7102 13.02 11.7702 13C11.8302 12.97 11.9002 12.95 11.9602 12.94C12.1502 12.9 12.3502 12.92 12.5402 13C12.6602 13.05 12.7702 13.12 12.8602 13.21C12.9502 13.31 13.0302 13.41 13.0802 13.54C13.1302 13.66 13.1602 13.79 13.1602 13.92C13.1602 14.19 13.0502 14.44 12.8602 14.63C12.6702 14.82 12.4202 14.92 12.1602 14.92Z" fill="#292D32"/>
<path d="M16.1502 14.92C16.0202 14.92 15.8902 14.89 15.7702 14.84C15.6502 14.79 15.5402 14.72 15.4502 14.63C15.3502 14.53 15.2802 14.42 15.2302 14.3C15.1802 14.18 15.1602 14.05 15.1602 13.92C15.1602 13.79 15.1802 13.66 15.2302 13.54C15.2802 13.41 15.3502 13.31 15.4502 13.21C15.8202 12.84 16.4902 12.84 16.8602 13.21C17.0502 13.4 17.1602 13.66 17.1602 13.92C17.1602 14.19 17.0502 14.44 16.8602 14.63C16.6802 14.81 16.4302 14.92 16.1502 14.92Z" fill="#292D32"/>
<path d="M8.1599 18.9201C7.8899 18.9201 7.6399 18.8201 7.4499 18.6301C7.2599 18.4401 7.1499 18.1901 7.1499 17.9201C7.1499 17.6601 7.2599 17.4001 7.4499 17.2101C7.4899 17.1701 7.5499 17.1201 7.5999 17.0901C7.6499 17.0501 7.7099 17.0201 7.7699 17.0001C7.8299 16.9701 7.8999 16.9501 7.9599 16.9401C8.2899 16.8801 8.6299 16.9801 8.8599 17.2101C8.9099 17.2601 8.9499 17.3101 8.9899 17.3601C9.0199 17.4201 9.0499 17.4801 9.0799 17.5401C9.0999 17.6001 9.1199 17.6601 9.1399 17.7201C9.1499 17.7901 9.1599 17.8501 9.1599 17.9201C9.1599 18.1901 9.0499 18.4401 8.8599 18.6301C8.6699 18.8201 8.4199 18.9201 8.1599 18.9201Z" fill="#292D32"/>
<path d="M12.1599 18.9201C11.8899 18.9201 11.6399 18.8201 11.4499 18.6301C11.2599 18.4401 11.1499 18.1901 11.1499 17.9201C11.1499 17.6601 11.2599 17.4001 11.4499 17.2101C11.6799 16.9801 12.0299 16.8801 12.3499 16.9401C12.4099 16.9501 12.4799 16.9701 12.5399 17.0001C12.5999 17.0201 12.6599 17.0501 12.7099 17.0901C12.7599 17.1201 12.8099 17.1701 12.8599 17.2101C13.0499 17.4001 13.1499 17.6601 13.1499 17.9201C13.1499 18.1901 13.0499 18.4401 12.8599 18.6301C12.6699 18.8201 12.4199 18.9201 12.1599 18.9201Z" fill="#292D32"/>
<path d="M16.1502 18.92C15.8902 18.92 15.6402 18.82 15.4502 18.63C15.2602 18.44 15.1602 18.19 15.1602 17.92C15.1602 17.66 15.2602 17.4 15.4502 17.21C15.5402 17.12 15.6502 17.05 15.7702 17C16.1402 16.85 16.5902 16.93 16.8602 17.21C17.0502 17.4 17.1502 17.66 17.1502 17.92C17.1502 18.19 17.0502 18.44 16.8602 18.63C16.7702 18.72 16.6602 18.79 16.5402 18.84C16.4202 18.89 16.2902 18.92 16.1502 18.92Z" fill="#292D32"/>
</svg>
