<svg width="24" height="24" viewBox="0 0 24 24" fill="none" xmlns="http://www.w3.org/2000/svg">
<path opacity="0.4" d="M8 22H16C18.76 22 21 19.76 21 17V7C21 4.24 18.76 2 16 2H8C5.24 2 3 4.24 3 7V17C3 19.76 5.24 22 8 22Z" fill="#292D32"/>
<path d="M15.0001 5.70996H9.00012C7.97012 5.70996 7.12012 6.54996 7.12012 7.58996V8.58996C7.12012 9.61996 7.96012 10.47 9.00012 10.47H15.0001C16.0301 10.47 16.8801 9.62996 16.8801 8.58996V7.58996C16.8801 6.54996 16.0401 5.70996 15.0001 5.70996Z" fill="#292D32"/>
<path d="M8.1599 14.9199C8.0199 14.9199 7.8899 14.8899 7.7699 14.8399C7.6499 14.7899 7.5399 14.7199 7.4499 14.6299C7.2599 14.4399 7.1499 14.1899 7.1499 13.9199C7.1499 13.7899 7.1799 13.6599 7.2299 13.5399C7.2799 13.4099 7.3499 13.3099 7.4499 13.2099C7.6799 12.9799 8.0299 12.8699 8.3499 12.9399C8.4099 12.9499 8.4799 12.9699 8.5399 12.9999C8.5999 13.0199 8.6599 13.0499 8.7099 13.0899C8.7699 13.1199 8.8199 13.1699 8.8599 13.2099C8.9499 13.3099 9.0299 13.4099 9.0799 13.5399C9.1299 13.6599 9.1499 13.7899 9.1499 13.9199C9.1499 14.1899 9.0499 14.4399 8.8599 14.6299C8.6699 14.8199 8.4199 14.9199 8.1599 14.9199Z" fill="#292D32"/>
<path d="M12.1499 14.92C11.8899 14.92 11.6399 14.82 11.4499 14.63C11.2599 14.44 11.1499 14.19 11.1499 13.92C11.1499 13.66 11.2599 13.4 11.4499 13.21C11.8199 12.84 12.4899 12.84 12.8599 13.21C12.9499 13.31 13.0299 13.41 13.0799 13.54C13.1299 13.66 13.1499 13.79 13.1499 13.92C13.1499 14.19 13.0499 14.44 12.8599 14.63C12.6699 14.82 12.4199 14.92 12.1499 14.92Z" fill="#292D32"/>
<path d="M16.1499 14.92C15.8899 14.92 15.6399 14.82 15.4499 14.63C15.2599 14.44 15.1499 14.19 15.1499 13.92C15.1499 13.66 15.2599 13.4 15.4499 13.21C15.8199 12.84 16.4899 12.84 16.8599 13.21C17.0499 13.4 17.1599 13.66 17.1599 13.92C17.1599 14.05 17.1299 14.18 17.0799 14.3C17.0299 14.42 16.9599 14.53 16.8599 14.63C16.6699 14.82 16.4199 14.92 16.1499 14.92Z" fill="#292D32"/>
<path d="M8.1599 18.92C7.8899 18.92 7.6399 18.82 7.4499 18.63C7.2599 18.44 7.1499 18.19 7.1499 17.92C7.1499 17.66 7.2599 17.4 7.4499 17.21C7.5399 17.12 7.6499 17.05 7.7699 17C8.0199 16.9 8.2899 16.9 8.5399 17C8.5999 17.02 8.6599 17.05 8.7099 17.09C8.7699 17.12 8.8199 17.17 8.8599 17.21C9.0499 17.4 9.1599 17.66 9.1599 17.92C9.1599 18.19 9.0499 18.44 8.8599 18.63C8.6699 18.82 8.4199 18.92 8.1599 18.92Z" fill="#292D32"/>
<path d="M12.1499 18.92C11.8899 18.92 11.6399 18.82 11.4499 18.63C11.2599 18.44 11.1499 18.19 11.1499 17.92C11.1499 17.85 11.1599 17.79 11.1699 17.72C11.1899 17.66 11.2099 17.6 11.2299 17.54C11.2599 17.48 11.2899 17.42 11.3199 17.36C11.3599 17.31 11.3999 17.26 11.4499 17.21C11.5399 17.12 11.6499 17.05 11.7699 17C12.1399 16.85 12.5799 16.93 12.8599 17.21C13.0499 17.4 13.1499 17.66 13.1499 17.92C13.1499 18.19 13.0499 18.44 12.8599 18.63C12.7699 18.72 12.6599 18.79 12.5399 18.84C12.4199 18.89 12.2899 18.92 12.1499 18.92Z" fill="#292D32"/>
<path d="M16.1502 18.92C16.0202 18.92 15.8902 18.89 15.7702 18.84C15.6502 18.79 15.5402 18.72 15.4502 18.63C15.2602 18.44 15.1602 18.19 15.1602 17.92C15.1602 17.66 15.2602 17.4 15.4502 17.21C15.7202 16.93 16.1702 16.85 16.5402 17C16.6602 17.05 16.7702 17.12 16.8602 17.21C17.0502 17.4 17.1502 17.66 17.1502 17.92C17.1502 18.19 17.0502 18.44 16.8602 18.63C16.6702 18.82 16.4202 18.92 16.1502 18.92Z" fill="#292D32"/>
</svg>
