<svg width="24" height="24" viewBox="0 0 24 24" fill="none" xmlns="http://www.w3.org/2000/svg">
<path d="M16.42 7.95C18.86 10.39 18.86 14.35 16.42 16.79C13.98 19.23 10.02 19.23 7.58 16.79C5.14 14.35 5.14 10.39 7.58 7.95C10.02 5.51 13.98 5.51 16.42 7.95Z" fill="#292D32"/>
<path opacity="0.4" d="M8.25003 22.39C8.16003 22.39 8.06004 22.37 7.97004 22.34C5.72004 21.44 3.90003 19.85 2.68003 17.75C1.50003 15.7 1.03003 13.38 1.34003 11.02C1.39003 10.61 1.78003 10.32 2.18003 10.37C2.59003 10.42 2.88002 10.8 2.83002 11.21C2.57002 13.23 2.97005 15.23 3.98005 16.99C5.02005 18.79 6.59002 20.16 8.52002 20.93C8.90002 21.09 9.09004 21.52 8.94004 21.91C8.83004 22.21 8.54003 22.39 8.25003 22.39Z" fill="#292D32"/>
<path opacity="0.4" d="M5.8501 5.22986C5.6301 5.22986 5.4101 5.12988 5.2601 4.93988C5.0001 4.60988 5.06011 4.13989 5.39011 3.88989C7.30011 2.39989 9.58009 1.60986 12.0001 1.60986C14.3601 1.60986 16.6101 2.36988 18.5001 3.80988C18.8301 4.05988 18.8901 4.52986 18.6401 4.85986C18.3901 5.18986 17.9201 5.24988 17.5901 4.99988C15.9701 3.75988 14.0401 3.10986 12.0001 3.10986C9.92009 3.10986 7.95009 3.78989 6.31009 5.06989C6.17009 5.17989 6.0101 5.22986 5.8501 5.22986Z" fill="#292D32"/>
<path opacity="0.4" d="M15.75 22.39C15.45 22.39 15.17 22.21 15.05 21.92C14.9 21.54 15.08 21.1 15.47 20.94C17.4 20.16 18.97 18.8 20.01 17C21.03 15.24 21.43 13.24 21.16 11.22C21.11 10.81 21.4 10.43 21.81 10.38C22.21 10.33 22.6 10.62 22.65 11.03C22.95 13.38 22.49 15.71 21.31 17.76C20.1 19.86 18.27 21.44 16.02 22.35C15.94 22.37 15.85 22.39 15.75 22.39Z" fill="#292D32"/>
</svg>
