<svg width="24" height="24" viewBox="0 0 24 24" fill="none" xmlns="http://www.w3.org/2000/svg">
<path d="M21.7101 11.35L18.7001 13.25L12.6201 7.16999L14.5101 4.15998C15.3901 2.76998 17.1601 2.71001 18.4501 4.00001L21.8601 7.40998C23.0801 8.63998 23.0001 10.53 21.7101 11.35Z" fill="#292D32"/>
<path opacity="0.4" d="M16.0001 21.29L6.64009 22.39C5.99009 22.47 5.41009 22.37 4.92009 22.13C4.40009 21.87 3.99009 21.47 3.73009 20.94C3.49009 20.45 3.4001 19.88 3.4701 19.24L4.51009 10.53C4.68009 10.62 4.87009 10.7 5.06009 10.76C5.51009 10.92 5.9901 11 6.5001 11C7.6401 11 8.6701 10.58 9.4601 9.88C9.8101 9.58 10.1101 9.22001 10.3501 8.82001C10.5601 8.47001 10.7201 8.10001 10.8301 7.70001C10.8901 7.50001 10.9301 7.29001 10.9601 7.07001L12.6201 7.16998L18.7001 13.26L18.9601 17.68C19.2101 20.16 18.3501 21.02 16.0001 21.29Z" fill="#292D32"/>
<path d="M8.77998 18.28L4.92998 22.13C4.39998 21.87 3.99999 21.47 3.73999 20.94L7.58998 17.09C7.92998 16.76 8.45998 16.76 8.77998 17.09C9.10998 17.42 9.10998 17.95 8.77998 18.28Z" fill="#292D32"/>
<path d="M6.5 2C5.44 2 4.46 2.36999 3.69 2.98999C2.65 3.80999 2 5.08 2 6.5C2 7.34 2.23999 8.14001 2.64999 8.82001C3.08999 9.55001 3.72999 10.15 4.50999 10.53C4.67999 10.62 4.87 10.7 5.06 10.76C5.51 10.92 5.99 11 6.5 11C7.64 11 8.67001 10.58 9.46001 9.88C9.81001 9.58 10.11 9.22001 10.35 8.82001C10.56 8.47001 10.72 8.10001 10.83 7.70001C10.89 7.50001 10.93 7.29001 10.96 7.07001C10.99 6.88001 11 6.69 11 6.5C11 4.01 8.99 2 6.5 2ZM8.23 8.21002C8.08 8.36002 7.89 8.42999 7.7 8.42999C7.51 8.42999 7.32 8.36002 7.17 8.21002L6.50999 7.54999L5.82001 8.23999C5.67001 8.38999 5.47999 8.46002 5.28999 8.46002C5.09999 8.46002 4.90999 8.38999 4.75999 8.23999C4.46999 7.94999 4.46999 7.46999 4.75999 7.17999L5.45 6.48999L4.78999 5.83002C4.49999 5.54002 4.49999 5.06002 4.78999 4.77002C5.07999 4.48002 5.56001 4.48002 5.85001 4.77002L6.50999 5.42999L7.14 4.79999C7.43 4.50999 7.91 4.50999 8.2 4.79999C8.49 5.08999 8.49 5.56999 8.2 5.85999L7.57001 6.48999L8.23 7.15002C8.53 7.44002 8.53 7.91002 8.23 8.21002Z" fill="#292D32"/>
</svg>
