<svg width="24" height="24" viewBox="0 0 24 24" fill="none" xmlns="http://www.w3.org/2000/svg">
<path d="M14.44 7.25C14.25 7.25 14.06 7.18001 13.91 7.03L11.88 5L9.85001 7.03C9.56001 7.32 9.08001 7.32 8.79001 7.03C8.50001 6.74001 8.50001 6.26 8.79001 5.97L11.35 3.41C11.64 3.12 12.12 3.12 12.41 3.41L14.97 5.97C15.26 6.26 15.26 6.74001 14.97 7.03C14.82 7.18001 14.63 7.25 14.44 7.25Z" fill="#292D32"/>
<path d="M11.88 14.93C11.47 14.93 11.13 14.59 11.13 14.18V4.01001C11.13 3.60001 11.47 3.26001 11.88 3.26001C12.29 3.26001 12.63 3.60001 12.63 4.01001V14.18C12.63 14.6 12.29 14.93 11.88 14.93Z" fill="#292D32"/>
<path d="M12 20.75C6.85 20.75 3.25 17.15 3.25 12C3.25 11.59 3.59 11.25 4 11.25C4.41 11.25 4.75 11.59 4.75 12C4.75 16.27 7.73 19.25 12 19.25C16.27 19.25 19.25 16.27 19.25 12C19.25 11.59 19.59 11.25 20 11.25C20.41 11.25 20.75 11.59 20.75 12C20.75 17.15 17.15 20.75 12 20.75Z" fill="#292D32"/>
</svg>
