<svg width="24" height="24" viewBox="0 0 24 24" fill="none" xmlns="http://www.w3.org/2000/svg">
<path opacity="0.4" d="M22 10.76C22 10.29 21.62 9.90002 21.14 9.90002H2.86C2.38 9.90002 2 10.28 2 10.76C2 16.65 6.11 20.76 12 20.76C17.89 20.76 22 16.64 22 10.76Z" fill="#292D32"/>
<path d="M12.53 3.45998L15.38 6.29998C15.67 6.58998 15.67 7.06998 15.38 7.35998C15.09 7.64998 14.61 7.64998 14.32 7.35998L12.75 5.79998V15.37C12.75 15.78 12.41 16.12 12 16.12C11.59 16.12 11.25 15.78 11.25 15.37V5.79998L9.69002 7.36998C9.40002 7.65998 8.92002 7.65998 8.63002 7.36998C8.48002 7.21998 8.40002 7.02998 8.40002 6.83998C8.40002 6.64998 8.47002 6.45998 8.62002 6.30998L11.47 3.46998C11.76 3.16998 12.24 3.16998 12.53 3.45998Z" fill="#292D32"/>
</svg>
