<svg width="24" height="24" viewBox="0 0 24 24" fill="none" xmlns="http://www.w3.org/2000/svg">
<path opacity="0.4" d="M16.92 22C14.12 22 11.84 19.73 11.84 16.92C11.84 14.12 14.11 11.84 16.92 11.84C19.72 11.84 22 14.11 22 16.92C22 19.73 19.73 22 16.92 22Z" fill="#292D32"/>
<path opacity="0.4" d="M5.02 2H8.94C11.01 2 12.01 2.99999 11.96 5.01999V8.94C12.01 11.01 11.01 12.01 8.94 11.96H5.02C3 12 2 11 2 8.92999V5.01001C2 3.00001 3 2 5.02 2Z" fill="#292D32"/>
<path d="M9.00999 8.26004C8.69999 8.26004 8.41 8.14003 8.14 7.94003C8.39 7.54003 8.57 7.09004 8.66 6.60004H9C9.41 6.60004 9.75 6.26004 9.75 5.85004C9.75 5.44004 9.41 5.10004 9 5.10004H8.00999C7.99999 5.10004 7.99001 5.10004 7.99001 5.10004H7.97H7.71001C7.67001 4.72004 7.36 4.42004 6.97 4.42004C6.58 4.42004 6.27 4.72004 6.23 5.10004H4.94C4.53 5.10004 4.19 5.44004 4.19 5.85004C4.19 6.26004 4.53 6.60004 4.94 6.60004H7.11C6.81 7.56004 5.94999 8.26004 4.92999 8.26004C4.51999 8.26004 4.17999 8.60004 4.17999 9.01004C4.17999 9.42004 4.51999 9.76004 4.92999 9.76004C5.73999 9.76004 6.49 9.49004 7.11 9.04004C7.66 9.50004 8.32 9.76004 9 9.76004C9.41 9.76004 9.75 9.42004 9.75 9.01004C9.75 8.60004 9.41999 8.26004 9.00999 8.26004Z" fill="#292D32"/>
<path d="M9 22.75C4.73 22.75 1.25 19.27 1.25 15C1.25 14.59 1.59 14.25 2 14.25C2.41 14.25 2.75 14.59 2.75 15C2.75 17.96 4.81 20.44 7.58 21.09L7.31 20.64C7.1 20.28 7.21001 19.82 7.57001 19.61C7.92001 19.4 8.39001 19.51 8.60001 19.87L9.64999 21.62C9.78999 21.85 9.79 22.14 9.66 22.37C9.52 22.6 9.27 22.75 9 22.75Z" fill="#292D32"/>
<path d="M22 9.75C21.59 9.75 21.25 9.41 21.25 9C21.25 6.04 19.19 3.56 16.42 2.91L16.69 3.35999C16.9 3.71999 16.79 4.18001 16.43 4.39001C16.08 4.60001 15.61 4.49001 15.4 4.13L14.35 2.38C14.21 2.15 14.21 1.86 14.34 1.63C14.47 1.39 14.72 1.25 14.99 1.25C19.26 1.25 22.74 4.73 22.74 9C22.75 9.41 22.41 9.75 22 9.75Z" fill="#292D32"/>
<path d="M19.73 18.33L17.59 14.06C17.46 13.81 17.2 13.64 16.92 13.64C16.64 13.64 16.38 13.8 16.25 14.05L14.11 18.32C13.92 18.69 14.07 19.14 14.45 19.33C14.56 19.38 14.67 19.41 14.78 19.41C15.05 19.41 15.32 19.26 15.45 19L15.62 18.66H18.21L18.38 19C18.57 19.37 19.02 19.52 19.39 19.34C19.77 19.15 19.92 18.7 19.73 18.33ZM16.38 17.16L16.93 16.07L17.48 17.16H16.38Z" fill="#292D32"/>
</svg>
