<svg width="24" height="24" viewBox="0 0 24 24" fill="none" xmlns="http://www.w3.org/2000/svg">
<path opacity="0.4" d="M21.97 12C21.97 14.49 21.06 16.77 19.55 18.52C19.22 18.9 18.87 19.26 18.49 19.57C16.75 21.09 14.47 22 11.97 22C9.47997 22 7.19997 21.09 5.44997 19.58C5.06997 19.25 4.71997 18.9 4.38997 18.52C2.87997 16.77 1.96997 14.49 1.96997 12C1.96997 9.51 2.87997 7.23 4.39997 5.48C4.71997 5.1 5.07997 4.74 5.45997 4.42C7.20997 2.91 9.47997 2 11.97 2C14.47 2 16.75 2.91 18.49 4.43C18.87 4.75 19.23 5.1 19.55 5.49C21.06 7.24 21.97 9.51 21.97 12Z" fill="#292D32"/>
<path d="M15.6499 14.62L19.5499 18.52C19.2199 18.9 18.8699 19.26 18.4899 19.57L14.5899 15.67C13.8499 16.19 12.9599 16.5 11.9999 16.5C11.0199 16.5 10.1199 16.18 9.37989 15.65L5.44989 19.58C5.06989 19.25 4.71989 18.9 4.38989 18.52L8.32989 14.59C7.80989 13.85 7.49989 12.96 7.49989 12C7.49989 11.04 7.80989 10.15 8.32989 9.41L4.39989 5.48C4.71989 5.1 5.07989 4.74 5.45989 4.42L9.37989 8.35C10.1199 7.82 11.0199 7.5 11.9999 7.5C12.9599 7.5 13.8499 7.81 14.5899 8.33L18.4899 4.43C18.8699 4.75 19.2299 5.1 19.5499 5.49L15.6499 9.38C16.1799 10.12 16.4999 11.02 16.4999 12C16.4999 12.98 16.1799 13.88 15.6499 14.62Z" fill="#292D32"/>
</svg>
