<svg width="24" height="24" viewBox="0 0 24 24" fill="none" xmlns="http://www.w3.org/2000/svg">
<path d="M3.5 5.06V18.94C3.5 19.35 3.16 19.69 2.75 19.69C2.34 19.69 2 19.35 2 18.94V5.06C2 4.65 2.34 4.31 2.75 4.31C3.16 4.31 3.5 4.65 3.5 5.06Z" fill="#292D32"/>
<path d="M22 5.06V18.94C22 19.35 21.66 19.69 21.25 19.69C20.84 19.69 20.5 19.35 20.5 18.94V5.06C20.5 4.65 20.84 4.31 21.25 4.31C21.66 4.31 22 4.65 22 5.06Z" fill="#292D32"/>
<path opacity="0.4" d="M7.6001 21.25H16.4001C18.0601 21.25 19.4001 19.91 19.4001 18.25V5.75C19.4001 4.09 18.0601 2.75 16.4001 2.75H7.6001C5.9401 2.75 4.6001 4.09 4.6001 5.75V18.25C4.6001 19.91 5.9401 21.25 7.6001 21.25Z" fill="#292D32"/>
</svg>
