<svg width="24" height="24" viewBox="0 0 24 24" fill="none" xmlns="http://www.w3.org/2000/svg">
<path opacity="0.4" d="M22 9.20999V14.79C22 18.89 20.75 20.14 16.65 20.14H9.90996V17.12C9.90996 16.74 9.58996 16.42 9.20996 16.42V7.57999C9.58996 7.57999 9.90996 7.25999 9.90996 6.87999V3.85999H16.65C20.75 3.85999 22 5.10999 22 9.20999Z" fill="#292D32"/>
<path d="M18.47 11.9C18.64 11.74 18.7 11.49 18.63 11.27C18.56 11.04 18.37 10.88 18.13 10.85L16.85 10.66C16.8 10.65 16.76 10.62 16.74 10.58L16.17 9.42002C16.07 9.21002 15.85 9.08002 15.62 9.08002C15.38 9.08002 15.17 9.21002 15.06 9.42002L14.49 10.58C14.47 10.63 14.42 10.66 14.37 10.66L13.09 10.85C12.86 10.88 12.66 11.05 12.59 11.27C12.52 11.5 12.58 11.74 12.75 11.9L13.68 12.8C13.72 12.83 13.73 12.89 13.72 12.94L13.5 14.21C13.46 14.44 13.55 14.68 13.75 14.81C13.86 14.89 13.98 14.93 14.11 14.93C14.21 14.93 14.31 14.91 14.4 14.86L15.55 14.26C15.59 14.24 15.65 14.24 15.69 14.26L16.84 14.86C17.05 14.97 17.3 14.95 17.49 14.81C17.68 14.67 17.78 14.44 17.74 14.2L17.52 12.93C17.51 12.88 17.53 12.83 17.56 12.79L18.47 11.9Z" fill="#292D32"/>
<path d="M9.21012 7.57999V16.42C8.83012 16.42 8.51012 16.74 8.51012 17.12V20.14H7.35012C3.40012 20.14 2.10012 18.96 2.01012 15.28C2.00012 15.09 2.08012 14.91 2.21012 14.78C2.34012 14.64 2.53012 14.57 2.71012 14.57C4.11012 14.57 5.26012 13.42 5.26012 12.01C5.26012 10.6 4.11012 9.43999 2.71012 9.43999C2.51012 9.43999 2.34012 9.36999 2.21012 9.22999C2.08012 9.09999 2.00012 8.90999 2.01012 8.72999C2.10012 5.03999 3.40012 3.85999 7.35012 3.85999H8.51012V6.87999C8.51012 7.26999 8.83012 7.57999 9.21012 7.57999Z" fill="#292D32"/>
</svg>
