<svg width="24" height="24" viewBox="0 0 24 24" fill="none" xmlns="http://www.w3.org/2000/svg">
<path d="M17.01 12.73C17.601 12.73 18.08 12.2509 18.08 11.66C18.08 11.069 17.601 10.59 17.01 10.59C16.4191 10.59 15.94 11.069 15.94 11.66C15.94 12.2509 16.4191 12.73 17.01 12.73Z" stroke="#292D32" stroke-width="1.5" stroke-linecap="round" stroke-linejoin="round"/>
<path d="M20 6V7.78998C19.75 7.75998 19.46 7.73999 19.15 7.73999H14.87C12.73 7.73999 12.02 8.45003 12.02 10.59V15.7H6C2.8 15.7 2 14.9 2 11.7V6C2 2.8 2.8 2 6 2H16C19.2 2 20 2.8 20 6Z" stroke="#292D32" stroke-width="1.5" stroke-linecap="round" stroke-linejoin="round"/>
<path opacity="0.4" d="M2 11.9H12" stroke="#292D32" stroke-width="1.5" stroke-linecap="round" stroke-linejoin="round"/>
<g opacity="0.4">
<path d="M9 15.7V20" stroke="#292D32" stroke-width="1.5" stroke-linecap="round" stroke-linejoin="round"/>
<path d="M5.9502 20H12.0002" stroke="#292D32" stroke-width="1.5" stroke-linecap="round" stroke-linejoin="round"/>
</g>
<path d="M17.01 12.73C17.601 12.73 18.08 12.2509 18.08 11.66C18.08 11.069 17.601 10.59 17.01 10.59C16.4191 10.59 15.94 11.069 15.94 11.66C15.94 12.2509 16.4191 12.73 17.01 12.73Z" stroke="#292D32" stroke-width="1.5" stroke-miterlimit="10" stroke-linecap="round" stroke-linejoin="round"/>
<path d="M22 10.59V19.15C22 21.29 21.29 22 19.15 22H14.87C12.73 22 12.02 21.29 12.02 19.15V10.59C12.02 8.45003 12.73 7.73999 14.87 7.73999H19.15C19.46 7.73999 19.75 7.75998 20 7.78998C21.48 7.97998 22 8.76003 22 10.59Z" stroke="#292D32" stroke-width="1.5" stroke-miterlimit="10" stroke-linecap="round" stroke-linejoin="round"/>
<path d="M19.15 17.01C19.15 18.19 18.19 19.15 17.01 19.15C15.83 19.15 14.87 18.19 14.87 17.01C14.87 16.52 15.04 16.06 15.32 15.7C15.71 15.2 16.32 14.87 17.01 14.87C17.55 14.87 18.04 15.07 18.41 15.39C18.86 15.79 19.15 16.37 19.15 17.01Z" stroke="#292D32" stroke-width="1.5" stroke-miterlimit="10" stroke-linecap="round" stroke-linejoin="round"/>
<path d="M17.01 12.73C17.601 12.73 18.08 12.2509 18.08 11.66C18.08 11.069 17.601 10.59 17.01 10.59C16.4191 10.59 15.94 11.069 15.94 11.66C15.94 12.2509 16.4191 12.73 17.01 12.73Z" stroke="#292D32" stroke-width="1.5" stroke-miterlimit="10" stroke-linecap="round" stroke-linejoin="round"/>
</svg>
