<svg width="24" height="24" viewBox="0 0 24 24" fill="none" xmlns="http://www.w3.org/2000/svg">
<path opacity="0.4" d="M16.19 2H7.82001C4.18001 2 2.01001 4.17 2.01001 7.81V16.18C2.01001 19.82 4.18001 21.99 7.82001 21.99H16.19C19.83 21.99 22 19.82 22 16.18V7.81C22 4.17 19.83 2 16.19 2Z" fill="#292D32"/>
<path d="M16.14 6.71002C15.8 6.45002 15.2 6.20002 14.24 6.46002L11.25 7.28003C10.32 7.53003 9.71002 8.31998 9.71002 9.28998V11.04V13.07C9.50002 13.01 9.29 12.97 9.06 12.97C7.77 12.97 6.71997 14.02 6.71997 15.31C6.71997 16.6 7.77 17.65 9.06 17.65C10.34 17.65 11.38 16.61 11.4 15.34C11.4 15.33 11.41 15.32 11.41 15.31V11.69L15.19 10.66V12.08C14.98 12.02 14.77 11.98 14.54 11.98C13.25 11.98 12.2 13.03 12.2 14.32C12.2 15.61 13.25 16.66 14.54 16.66C15.83 16.66 16.88 15.61 16.88 14.32V9.56V8.48999C16.88 7.48999 16.47 6.97002 16.14 6.71002ZM9.06 15.96C8.7 15.96 8.40997 15.67 8.40997 15.31C8.40997 14.95 8.7 14.66 9.06 14.66C9.42 14.66 9.71002 14.95 9.71002 15.31C9.71002 15.67 9.42 15.96 9.06 15.96ZM14.54 14.96C14.18 14.96 13.89 14.67 13.89 14.31C13.89 13.95 14.18 13.66 14.54 13.66C14.9 13.66 15.19 13.95 15.19 14.31C15.18 14.67 14.89 14.96 14.54 14.96Z" fill="#292D32"/>
</svg>
