<svg width="24" height="24" viewBox="0 0 24 24" fill="none" xmlns="http://www.w3.org/2000/svg">
<path opacity="0.4" d="M11.9702 22C17.4931 22 21.9702 17.5228 21.9702 12C21.9702 6.47715 17.4931 2 11.9702 2C6.44737 2 1.97021 6.47715 1.97021 12C1.97021 17.5228 6.44737 22 11.9702 22Z" fill="#292D32"/>
<path d="M11.9999 19.25C9.84988 19.25 7.82988 18.2 6.59988 16.43C6.35988 16.09 6.44988 15.62 6.78988 15.39C7.12988 15.15 7.59988 15.24 7.82988 15.58C8.77988 16.94 10.3399 17.76 11.9999 17.76C13.6599 17.76 15.2199 16.95 16.1699 15.58C16.4099 15.24 16.8699 15.16 17.2099 15.39C17.5499 15.63 17.6299 16.09 17.3999 16.43C16.1699 18.2 14.1499 19.25 11.9999 19.25Z" fill="#292D32"/>
</svg>
