<svg width="24" height="24" viewBox="0 0 24 24" fill="none" xmlns="http://www.w3.org/2000/svg">
<path d="M15.72 9.69002C13.67 7.63002 10.33 7.63002 8.27999 9.69002C6.21999 11.75 6.21999 15.08 8.27999 17.13C10.34 19.19 13.67 19.19 15.72 17.13C17.78 15.07 17.78 11.74 15.72 9.69002ZM12.53 13.94L10.94 15.53C10.79 15.68 10.6 15.75 10.41 15.75C10.22 15.75 10.02 15.68 9.87999 15.53C9.58999 15.24 9.58999 14.76 9.87999 14.46L11.47 12.87C11.76 12.58 12.24 12.58 12.54 12.87C12.83 13.17 12.83 13.65 12.53 13.94Z" fill="#292D32"/>
<path opacity="0.4" d="M19.6 5.81C19.38 5.59 19.1 5.46997 18.79 5.46997C18.48 5.46997 18.2 5.58999 17.98 5.79999C17.53 6.24999 17.53 6.96998 17.98 7.41998C18.2 7.63998 18.48 7.76001 18.79 7.76001C19.1 7.76001 19.38 7.63999 19.6 7.42999C19.82 7.20999 19.94 6.93 19.94 6.62C19.94 6.31 19.82 6.02 19.6 5.81Z" fill="#292D32"/>
<path opacity="0.4" d="M6.01999 19.3901C5.79999 19.1701 5.51999 19.05 5.20999 19.05C4.89999 19.05 4.61999 19.1701 4.39999 19.3801C4.17999 19.6001 4.06 19.8801 4.06 20.1901C4.06 20.5001 4.17999 20.7801 4.39999 21.0001C4.61999 21.2201 4.91999 21.3301 5.20999 21.3301C5.49999 21.3301 5.79999 21.2201 6.01999 20.9901C6.45999 20.5601 6.45999 19.8301 6.01999 19.3901Z" fill="#292D32"/>
<path opacity="0.4" d="M22.41 12.6C22.2 12.38 21.91 12.27 21.6 12.26C21.29 12.26 21.01 12.38 20.79 12.6C20.34 13.05 20.34 13.77 20.79 14.22C21.01 14.44 21.31 14.55 21.6 14.55C21.89 14.55 22.19 14.44 22.41 14.22C22.86 13.77 22.86 13.04 22.41 12.6Z" fill="#292D32"/>
<path opacity="0.4" d="M3.21 12.6C2.77 12.16 2.04 12.15 1.59 12.6C1.14 13.05 1.14 13.77 1.59 14.22C1.81 14.44 2.11 14.55 2.4 14.55C2.69 14.55 2.99 14.44 3.21 14.22C3.65 13.77 3.65 13.04 3.21 12.6Z" fill="#292D32"/>
<path opacity="0.4" d="M19.6 19.39C19.15 18.94 18.43 18.94 17.98 19.39C17.53 19.84 17.53 20.56 17.98 21.01C18.2 21.23 18.5 21.34 18.79 21.34C19.08 21.34 19.38 21.23 19.6 21.01C19.82 20.79 19.94 20.5 19.94 20.2C19.94 19.89 19.82 19.6 19.6 19.39Z" fill="#292D32"/>
<path opacity="0.4" d="M6.01999 5.81C5.79999 5.59 5.51999 5.46997 5.20999 5.46997C4.89999 5.46997 4.61999 5.58999 4.39999 5.79999C4.17999 6.01999 4.06 6.29999 4.06 6.60999C4.06 6.91999 4.18001 7.19998 4.39001 7.41998C4.61001 7.63998 4.89001 7.76001 5.20001 7.76001C5.51001 7.76001 5.79001 7.63998 6.01001 7.41998C6.46001 6.97998 6.45999 6.25 6.01999 5.81Z" fill="#292D32"/>
<path opacity="0.4" d="M12.81 2.99998C12.81 2.98998 12.81 2.98998 12.81 2.99998C12.36 2.54998 11.64 2.54998 11.19 2.99998C10.97 3.21998 10.85 3.50997 10.85 3.80997C10.85 4.11997 10.97 4.39997 11.18 4.61997C11.4 4.83997 11.68 4.96 11.99 4.96C12.3 4.96 12.58 4.83997 12.8 4.61997C13.26 4.16997 13.26 3.43998 12.81 2.99998Z" fill="#292D32"/>
</svg>
