<svg width="24" height="24" viewBox="0 0 24 24" fill="none" xmlns="http://www.w3.org/2000/svg">
<path d="M2 15C2 20 4 22 9 22H15C20 22 22 20 22 15V9C22 4 20 2 15 2H9C4 2 2 4 2 9V10.91H9.64999" stroke="#292D32" stroke-width="1.5" stroke-miterlimit="10" stroke-linecap="round" stroke-linejoin="round"/>
<path d="M14.3501 10.91C14.2501 11.62 13.8301 12.22 13.2501 12.58V14.56C13.2501 15.25 12.6901 15.81 12.0001 15.81C11.3101 15.81 10.7501 15.25 10.7501 14.56V12.58C10.1701 12.22 9.75012 11.62 9.65012 10.91C9.63012 10.8 9.62012 10.68 9.62012 10.56C9.62012 9.04 11.0601 7.86 12.6401 8.28C13.4401 8.49 14.0901 9.14 14.3001 9.94C14.3901 10.27 14.4001 10.6 14.3501 10.91Z" stroke="#292D32" stroke-width="1.5" stroke-miterlimit="10"/>
<path d="M18.0001 10.91H14.3501" stroke="#292D32" stroke-width="1.5" stroke-miterlimit="10" stroke-linecap="round" stroke-linejoin="round"/>
</svg>
