<svg width="24" height="24" viewBox="0 0 24 24" fill="none" xmlns="http://www.w3.org/2000/svg">
<path d="M12.4997 22.0003H4.07973C2.91973 22.0003 1.96973 21.0703 1.96973 19.9303V5.09035C1.96973 2.47035 3.91973 1.28035 6.30973 2.45035L10.7497 4.63035C11.7097 5.10035 12.4997 6.35035 12.4997 7.41035V22.0003Z" stroke="#292D32" stroke-width="1.5" stroke-linecap="round" stroke-linejoin="round"/>
<path d="M21.9697 15.0604V18.8404C21.9697 21.0004 20.9697 22.0004 18.8097 22.0004H12.4997V10.4204L12.9697 10.5204L17.4697 11.5304L19.4997 11.9804C20.8197 12.2704 21.8997 12.9504 21.9597 14.8704C21.9697 14.9304 21.9697 14.9904 21.9697 15.0604Z" stroke="#292D32" stroke-width="1.5" stroke-linecap="round" stroke-linejoin="round"/>
<path opacity="0.4" d="M5.49973 9.00037H8.96973" stroke="#292D32" stroke-width="1.5" stroke-linecap="round" stroke-linejoin="round"/>
<path opacity="0.4" d="M5.49973 13.0004H8.96973" stroke="#292D32" stroke-width="1.5" stroke-linecap="round" stroke-linejoin="round"/>
<path d="M17.4697 11.5304V14.7504C17.4697 15.9904 16.4597 17.0004 15.2197 17.0004C13.9797 17.0004 12.9697 15.9904 12.9697 14.7504V10.5204L17.4697 11.5304Z" stroke="#292D32" stroke-width="1.5" stroke-linecap="round" stroke-linejoin="round"/>
<path d="M21.9597 14.8704C21.8997 16.0504 20.9197 17.0004 19.7197 17.0004C18.4797 17.0004 17.4697 15.9904 17.4697 14.7504V11.5304L19.4997 11.9804C20.8197 12.2704 21.8997 12.9504 21.9597 14.8704Z" stroke="#292D32" stroke-width="1.5" stroke-linecap="round" stroke-linejoin="round"/>
</svg>
