<svg width="24" height="24" viewBox="0 0 24 24" fill="none" xmlns="http://www.w3.org/2000/svg">
<path opacity="0.4" d="M21.23 7.61998H15.69C15.31 7.61998 15 7.30998 15 6.91998C15 6.53998 15.31 6.22998 15.69 6.22998H21.23C21.61 6.22998 21.92 6.53998 21.92 6.91998C21.92 7.30998 21.61 7.61998 21.23 7.61998Z" fill="#292D32"/>
<path opacity="0.4" d="M6.45996 7.61999H2.76996C2.38996 7.61999 2.07996 7.30999 2.07996 6.92999C2.07996 6.54999 2.38996 6.23999 2.76996 6.23999H6.45996C6.83996 6.23999 7.14996 6.54999 7.14996 6.92999C7.14996 7.30999 6.83996 7.61999 6.45996 7.61999Z" fill="#292D32"/>
<path d="M10.15 10.84C12.3149 10.84 14.07 9.08496 14.07 6.92C14.07 4.75504 12.3149 3 10.15 3C7.98502 3 6.22998 4.75504 6.22998 6.92C6.22998 9.08496 7.98502 10.84 10.15 10.84Z" fill="#292D32"/>
<path opacity="0.4" d="M21.23 17.7699H17.54C17.16 17.7699 16.85 17.4599 16.85 17.0799C16.85 16.6999 17.16 16.3899 17.54 16.3899H21.23C21.61 16.3899 21.92 16.6999 21.92 17.0799C21.92 17.4599 21.61 17.7699 21.23 17.7699Z" fill="#292D32"/>
<path opacity="0.4" d="M8.30996 17.7699H2.76996C2.38996 17.7699 2.07996 17.4599 2.07996 17.0799C2.07996 16.6999 2.38996 16.3899 2.76996 16.3899H8.30996C8.68996 16.3899 8.99996 16.6999 8.99996 17.0799C8.99996 17.4599 8.68996 17.7699 8.30996 17.7699Z" fill="#292D32"/>
<path d="M13.8501 20.9999C16.015 20.9999 17.7701 19.2449 17.7701 17.0799C17.7701 14.915 16.015 13.1599 13.8501 13.1599C11.6851 13.1599 9.93005 14.915 9.93005 17.0799C9.93005 19.2449 11.6851 20.9999 13.8501 20.9999Z" fill="#292D32"/>
</svg>
