<svg width="24" height="24" viewBox="0 0 24 24" fill="none" xmlns="http://www.w3.org/2000/svg">
<path d="M12 22H17C20 22 22 20 22 17V12C22 9.3 20.3 7.3 17.8 7C17.6 7 17.3 7 17 7H7C6.7 7 6.5 6.99998 6.2 7.09998C3.6 7.39998 2 9.3 2 12C2 12.3 2 12.7 2 13" stroke="#292D32" stroke-width="1.5" stroke-linecap="round" stroke-linejoin="round"/>
<path d="M16.8002 4.79997C17.4002 5.39997 17.7002 6.19998 17.8002 6.99998C17.6002 6.99998 17.3002 6.99998 17.0002 6.99998H7.0002C6.7002 6.99998 6.5002 6.99996 6.2002 7.09996C6.3002 6.79996 6.5002 6.59997 6.8002 6.29997L10.0002 2.99998C10.8202 2.17998 11.9102 1.83996 12.9602 1.97996" stroke="#292D32" stroke-width="1.5" stroke-linecap="round" stroke-linejoin="round"/>
<path d="M22 12.5H19C17.9 12.5 17 13.4 17 14.5C17 15.6 17.9 16.5 19 16.5H22" stroke="#292D32" stroke-width="1.5" stroke-linecap="round" stroke-linejoin="round"/>
<path d="M5.8001 21.4C7.5701 21.4 9.0001 19.97 9.0001 18.2C9.0001 16.43 7.5701 15 5.8001 15C4.0301 15 2.6001 16.43 2.6001 18.2C2.6001 19.97 4.0301 21.4 5.8001 21.4Z" stroke="#292D32" stroke-width="1.5" stroke-linecap="round" stroke-linejoin="round"/>
<path d="M2 22L3 21" stroke="#292D32" stroke-width="1.5" stroke-linecap="round" stroke-linejoin="round"/>
</svg>
