<svg width="24" height="24" viewBox="0 0 24 24" fill="none" xmlns="http://www.w3.org/2000/svg">
<path d="M11.9999 9.75C11.5899 9.75 11.2499 9.41 11.2499 9V3.81L10.5299 4.53C10.2399 4.82 9.75994 4.82 9.46994 4.53C9.17994 4.24 9.17994 3.76 9.46994 3.47L11.4699 1.47C11.6799 1.26 12.0099 1.19 12.2899 1.31C12.5699 1.42 12.7499 1.7 12.7499 2V9C12.7499 9.41 12.4099 9.75 11.9999 9.75Z" fill="#292D32"/>
<path d="M13.9999 4.75C13.8099 4.75 13.6199 4.68 13.4699 4.53L11.4699 2.53C11.1799 2.24 11.1799 1.76 11.4699 1.47C11.7599 1.18 12.2399 1.18 12.5299 1.47L14.5299 3.47C14.8199 3.76 14.8199 4.24 14.5299 4.53C14.3799 4.68 14.1899 4.75 13.9999 4.75Z" fill="#292D32"/>
<path d="M13.76 17.75H10.23C9.17998 17.75 8.23998 17.17 7.76998 16.23L6.59998 13.89C6.55998 13.8 6.46998 13.75 6.37998 13.75H1.97998C1.56998 13.75 1.22998 13.41 1.22998 13C1.22998 12.59 1.56998 12.25 1.97998 12.25H6.38998C7.05998 12.25 7.65998 12.62 7.95998 13.22L9.12998 15.56C9.33998 15.99 9.76998 16.25 10.25 16.25H13.78C14.26 16.25 14.69 15.99 14.9 15.56L16.07 13.22C16.37 12.62 16.97 12.25 17.64 12.25H22C22.41 12.25 22.75 12.59 22.75 13C22.75 13.41 22.41 13.75 22 13.75H17.64C17.54 13.75 17.46 13.8 17.42 13.89L16.25 16.23C15.75 17.17 14.81 17.75 13.76 17.75Z" fill="#292D32"/>
<path d="M15 22.75H9C3.57 22.75 1.25 20.43 1.25 15V12C1.25 7.31 2.99 4.96 6.89 4.39C7.31 4.33 7.68 4.61 7.74 5.02C7.8 5.43 7.52 5.81 7.11 5.87C3.97 6.33 2.75 8.05 2.75 12V15C2.75 19.61 4.39 21.25 9 21.25H15C19.61 21.25 21.25 19.61 21.25 15V12C21.25 8.05 20.03 6.33 16.89 5.87C16.48 5.81 16.2 5.43 16.26 5.02C16.32 4.61 16.7 4.33 17.11 4.39C21.01 4.96 22.75 7.31 22.75 12V15C22.75 20.43 20.43 22.75 15 22.75Z" fill="#292D32"/>
</svg>
