<svg width="24" height="24" viewBox="0 0 24 24" fill="none" xmlns="http://www.w3.org/2000/svg">
<path opacity="0.4" d="M16.19 2H7.81C4.17 2 2 4.17 2 7.81V16.18C2 19.83 4.17 22 7.81 22H16.18C19.82 22 21.99 19.83 21.99 16.19V7.81C22 4.17 19.83 2 16.19 2Z" fill="#292D32"/>
<path d="M18.8202 10.58C19.2202 10.58 19.5502 10.25 19.5502 9.85001C19.5502 9.45001 19.2202 9.12001 18.8202 9.12001H15.2102L15.6002 5.62001C15.6402 5.22001 15.3602 4.86001 14.9502 4.81001C14.5502 4.77001 14.1902 5.05001 14.1402 5.46001L13.7302 9.12001H10.9002L11.2902 5.62001C11.3302 5.22001 11.0502 4.86001 10.6402 4.81001C10.2402 4.77001 9.8802 5.05001 9.8302 5.46001L9.4302 9.12001H5.9002C5.5002 9.12001 5.1702 9.45001 5.1702 9.85001C5.1702 10.25 5.5002 10.58 5.9002 10.58H9.2702L8.9502 13.43H5.1802C4.7802 13.43 4.4502 13.76 4.4502 14.16C4.4502 14.56 4.7802 14.89 5.1802 14.89H8.7902L8.4002 18.39C8.3602 18.79 8.6402 19.15 9.0502 19.2C9.0802 19.2 9.1002 19.2 9.1302 19.2C9.5002 19.2 9.81019 18.92 9.8602 18.55L10.2702 14.89H13.1102L12.7202 18.39C12.6802 18.79 12.9602 19.15 13.3702 19.2C13.4002 19.2 13.4202 19.2 13.4502 19.2C13.8202 19.2 14.1302 18.92 14.1802 18.55L14.5902 14.89H18.1202C18.5202 14.89 18.8502 14.56 18.8502 14.16C18.8502 13.76 18.5202 13.43 18.1202 13.43H14.7502L15.0702 10.58H18.8202ZM13.2602 13.42H10.4202L10.7402 10.57H13.5802L13.2602 13.42Z" fill="#292D32"/>
</svg>
