<svg width="24" height="24" viewBox="0 0 24 24" fill="none" xmlns="http://www.w3.org/2000/svg">
<path d="M17.5399 8.30989C18.8986 8.30989 20 7.20851 20 5.84989C20 4.49127 18.8986 3.38989 17.5399 3.38989C16.1813 3.38989 15.08 4.49127 15.08 5.84989C15.08 7.20851 16.1813 8.30989 17.5399 8.30989Z" stroke="#292D32" stroke-width="1.5" stroke-miterlimit="10" stroke-linecap="round" stroke-linejoin="round"/>
<path d="M8.92 5.84989C8.92 4.48989 7.82001 3.38989 6.46001 3.38989C5.10001 3.38989 4 4.48989 4 5.84989C4 7.20989 5.10001 8.30989 6.46001 8.30989" stroke="#292D32" stroke-width="1.5" stroke-miterlimit="10" stroke-linecap="round" stroke-linejoin="round"/>
<path d="M17.5399 20.62C18.8999 20.62 20 19.52 20 18.16C20 16.8 18.8999 15.7 17.5399 15.7C16.1799 15.7 15.08 16.8 15.08 18.16" stroke="#292D32" stroke-width="1.5" stroke-miterlimit="10" stroke-linecap="round" stroke-linejoin="round"/>
<path d="M6.46001 20.6099C7.81863 20.6099 8.92 19.5086 8.92 18.1499C8.92 16.7913 7.81863 15.6899 6.46001 15.6899C5.10139 15.6899 4 16.7913 4 18.1499C4 19.5086 5.10139 20.6099 6.46001 20.6099Z" stroke="#292D32" stroke-width="1.5" stroke-miterlimit="10" stroke-linecap="round" stroke-linejoin="round"/>
</svg>
