<svg width="24" height="24" viewBox="0 0 24 24" fill="none" xmlns="http://www.w3.org/2000/svg">
<path opacity="0.4" d="M16.19 2H7.82001C4.17001 2 2 4.17 2 7.81V16.18C2 19.82 4.17 21.99 7.81 21.99H16.18C19.82 21.99 21.99 19.82 21.99 16.18V7.81C22 4.17 19.83 2 16.19 2Z" fill="#292D32"/>
<path d="M16.78 9.06999C16.55 8.71999 16.08 8.62999 15.74 8.85999C15.4 9.08999 15.3 9.55999 15.53 9.89999C16 10.6 16.24 11.42 16.24 12.26C16.24 14.6 14.33 16.51 11.99 16.51C9.65001 16.51 7.74001 14.6 7.74001 12.26C7.74001 9.91999 9.65001 8.00999 11.99 8.00999C12.18 8.00999 12.36 8.02999 12.55 8.04999L12 8.45999C11.67 8.69999 11.59 9.16999 11.84 9.50999C11.99 9.70999 12.22 9.81999 12.45 9.81999C12.6 9.81999 12.76 9.76999 12.89 9.67999L14.83 8.25999C14.84 8.24999 14.84 8.23999 14.85 8.23999C14.86 8.22999 14.87 8.22999 14.88 8.21999C14.91 8.18999 14.93 8.15999 14.95 8.12999C14.98 8.08999 15.02 8.05999 15.04 8.00999C15.06 7.96999 15.07 7.91999 15.09 7.87999C15.1 7.82999 15.12 7.78999 15.13 7.73999C15.14 7.68999 15.13 7.64999 15.12 7.59999C15.12 7.54999 15.12 7.50999 15.1 7.45999C15.09 7.40999 15.06 7.36999 15.04 7.31999C15.02 7.28999 15.02 7.24999 14.99 7.20999C14.98 7.19999 14.97 7.19999 14.97 7.18999C14.96 7.17999 14.96 7.16999 14.95 7.15999L13.28 5.24999C13.01 4.93999 12.53 4.89999 12.22 5.17999C11.91 5.44999 11.88 5.92999 12.15 6.23999L12.43 6.55999C12.29 6.54999 12.15 6.52999 12 6.52999C8.83 6.52999 6.25 9.10999 6.25 12.28C6.25 15.45 8.83 18.03 12 18.03C15.17 18.03 17.75 15.45 17.75 12.28C17.75 11.12 17.42 10.02 16.78 9.06999Z" fill="#292D32"/>
</svg>
