<svg width="24" height="24" viewBox="0 0 24 24" fill="none" xmlns="http://www.w3.org/2000/svg">
<path d="M7 17.7501H5C2.58 17.7501 1.25 16.4201 1.25 14.0001V10.0001C1.25 7.58012 2.58 6.25012 5 6.25012H6.43C6.66 6.25012 6.89 6.18011 7.09 6.06012L10.01 4.23012C11.47 3.32012 12.89 3.15012 14.01 3.77012C15.13 4.39012 15.74 5.68012 15.74 7.41012V8.37012C15.74 8.78012 15.4 9.12012 14.99 9.12012C14.58 9.12012 14.24 8.78012 14.24 8.37012V7.41012C14.24 6.27012 13.89 5.42012 13.28 5.09012C12.67 4.75012 11.77 4.90012 10.8 5.51012L7.88 7.33012C7.45 7.61012 6.94 7.75012 6.43 7.75012H5C3.42 7.75012 2.75 8.42012 2.75 10.0001V14.0001C2.75 15.5801 3.42 16.2501 5 16.2501H7C7.41 16.2501 7.75 16.5901 7.75 17.0001C7.75 17.4101 7.41 17.7501 7 17.7501Z" fill="#292D32"/>
<path d="M12.55 20.59C11.76 20.59 10.89 20.31 10.02 19.76C9.66997 19.54 9.55997 19.08 9.77997 18.73C9.99997 18.38 10.46 18.27 10.81 18.49C11.78 19.09 12.68 19.25 13.29 18.91C13.9 18.57 14.25 17.72 14.25 16.59V12.95C14.25 12.54 14.59 12.2 15 12.2C15.41 12.2 15.75 12.54 15.75 12.95V16.59C15.75 18.31 15.13 19.61 14.02 20.23C13.57 20.47 13.07 20.59 12.55 20.59Z" fill="#292D32"/>
<path d="M18 16.7501C17.84 16.7501 17.69 16.7001 17.55 16.6001C17.22 16.3501 17.15 15.8801 17.4 15.5501C18.66 13.8701 18.93 11.6401 18.12 9.71007C17.96 9.33007 18.14 8.89007 18.52 8.73007C18.9 8.57007 19.34 8.75007 19.5 9.13007C20.52 11.5501 20.17 14.3601 18.6 16.4601C18.45 16.6501 18.23 16.7501 18 16.7501Z" fill="#292D32"/>
<path d="M19.83 19.25C19.67 19.25 19.52 19.2 19.38 19.1C19.05 18.85 18.98 18.38 19.23 18.05C21.37 15.2 21.84 11.38 20.46 8.08995C20.3 7.70995 20.48 7.26995 20.86 7.10995C21.25 6.94996 21.68 7.12996 21.84 7.50996C23.43 11.29 22.89 15.67 20.43 18.95C20.29 19.15 20.06 19.25 19.83 19.25Z" fill="#292D32"/>
<path d="M1.99994 22.7499C1.80994 22.7499 1.61994 22.6799 1.46994 22.5299C1.17994 22.2399 1.17994 21.7599 1.46994 21.4699L21.4699 1.46994C21.7599 1.17994 22.2399 1.17994 22.5299 1.46994C22.8199 1.75994 22.8199 2.23994 22.5299 2.52994L2.52994 22.5299C2.37994 22.6799 2.18994 22.7499 1.99994 22.7499Z" fill="#292D32"/>
</svg>
