<svg width="24" height="24" viewBox="0 0 24 24" fill="none" xmlns="http://www.w3.org/2000/svg">
<path d="M20.9602 17.84L19.3302 18.39C18.8802 18.54 18.5202 18.89 18.3702 19.35L17.8202 20.98C17.3502 22.39 15.3702 22.36 14.9302 20.95L13.0802 15C12.7202 13.82 13.8102 12.72 14.9802 13.09L20.9402 14.94C22.3402 15.38 22.3602 17.37 20.9602 17.84Z" stroke="#292D32" stroke-width="1.5" stroke-linecap="round" stroke-linejoin="round"/>
<path d="M3.98 6.03003C2.74 7.70003 2 9.76003 2 12C2 17.52 6.48 22 12 22" stroke="#292D32" stroke-width="1.5" stroke-linecap="round" stroke-linejoin="round"/>
<path d="M21.9998 12C21.9998 6.48 17.5198 2 11.9998 2C10.4798 2 9.04977 2.34 7.75977 2.94" stroke="#292D32" stroke-width="1.5" stroke-linecap="round" stroke-linejoin="round"/>
</svg>
