<svg width="24" height="24" viewBox="0 0 24 24" fill="none" xmlns="http://www.w3.org/2000/svg">
<path d="M12.9002 2.52003L12.8702 2.59003L9.9702 9.32003H7.1202C6.4402 9.32003 5.7902 9.46003 5.2002 9.71003L6.9502 5.53003L6.9902 5.43003L7.0602 5.27003C7.0802 5.21003 7.1002 5.15003 7.1302 5.10003C8.4402 2.07003 9.9202 1.38003 12.9002 2.52003Z" stroke="#292D32" stroke-width="1.5" stroke-linecap="round" stroke-linejoin="round"/>
<path d="M18.2902 9.52002C17.8402 9.38002 17.3602 9.32002 16.8802 9.32002H9.97021L12.8702 2.59002L12.9002 2.52002C13.0502 2.57002 13.1902 2.64002 13.3402 2.70002L15.5502 3.63002C16.7802 4.14002 17.6402 4.67002 18.1602 5.31002C18.2602 5.43002 18.3402 5.54002 18.4102 5.67002C18.5002 5.81002 18.5702 5.95002 18.6102 6.10002C18.6502 6.19002 18.6802 6.28002 18.7002 6.36002C18.9702 7.20002 18.8102 8.23002 18.2902 9.52002Z" stroke="#292D32" stroke-width="1.5" stroke-linecap="round" stroke-linejoin="round"/>
<path d="M12 22H8.1C7.86 22 7.62 21.98 7.39 21.95C4.21 21.74 2.51 20.04 2.3 16.86C2.27 16.63 2.25 16.39 2.25 16.15V14.2C2.25 12.19 3.47 10.46 5.21 9.71001C5.81 9.46001 6.45 9.32001 7.13 9.32001H16.89C17.38 9.32001 17.86 9.39001 18.3 9.52001C20.3 10.12 21.76 11.99 21.76 14.19V16.14C21.76 16.34 21.75 16.54 21.74 16.74C21.55 20.24 19.6 22 15.9 22" stroke="#292D32" stroke-width="1.5" stroke-linecap="round" stroke-linejoin="round"/>
<path d="M6.95023 5.53003L5.20023 9.71003C3.46023 10.46 2.24023 12.19 2.24023 14.2V11.27C2.24023 8.43003 4.26023 6.06003 6.95023 5.53003Z" stroke="#292D32" stroke-width="1.5" stroke-linecap="round" stroke-linejoin="round"/>
<path d="M21.7598 11.27V14.2C21.7598 12 20.2998 10.13 18.2998 9.52998C18.8198 8.22998 18.9698 7.20998 18.7198 6.35998C18.6998 6.26998 18.6698 6.17998 18.6298 6.09998C20.4898 7.05998 21.7598 9.02998 21.7598 11.27Z" stroke="#292D32" stroke-width="1.5" stroke-linecap="round" stroke-linejoin="round"/>
</svg>
