<svg width="24" height="24" viewBox="0 0 24 24" fill="none" xmlns="http://www.w3.org/2000/svg">
<path opacity="0.4" d="M16.19 2H7.81C4.17 2 2 4.17 2 7.81V16.18C2 19.83 4.17 22 7.81 22H16.18C19.82 22 21.99 19.83 21.99 16.19V7.81C22 4.17 19.83 2 16.19 2Z" fill="#292D32"/>
<path d="M15.8899 8.11007C14.4099 6.64007 12.0099 6.64007 10.5399 8.11007C9.50995 9.13007 9.19995 10.6101 9.59995 11.9101L7.24995 14.2601C7.08995 14.4301 6.96995 14.7601 7.00995 15.0001L7.15995 16.0901C7.20995 16.4501 7.54995 16.7901 7.90995 16.8401L8.99995 17.0001C9.23995 17.0301 9.56995 16.9301 9.73995 16.7501L10.1499 16.3401C10.2499 16.2501 10.2499 16.0901 10.1499 15.9901L9.17995 15.0201C9.03995 14.8801 9.03995 14.6401 9.17995 14.4901C9.31995 14.3501 9.55995 14.3501 9.70995 14.4901L10.6799 15.4601C10.7699 15.5501 10.9299 15.5501 11.0299 15.4601L12.0899 14.4101C13.3799 14.8101 14.86 14.5001 15.8899 13.4801C17.3699 11.9901 17.3699 9.59007 15.8899 8.11007ZM13.2499 12.0001C12.5599 12.0001 11.9999 11.4401 11.9999 10.7501C11.9999 10.0601 12.5599 9.50007 13.2499 9.50007C13.9399 9.50007 14.4999 10.0601 14.4999 10.7501C14.4999 11.4401 13.9399 12.0001 13.2499 12.0001Z" fill="#292D32"/>
</svg>
