<svg width="24" height="24" viewBox="0 0 24 24" fill="none" xmlns="http://www.w3.org/2000/svg">
<path d="M20.1 5.68999C21.66 4.56999 22.41 5.13999 21.77 6.94999L17.73 18.26C17.59 18.66 17.12 18.99 16.7 18.99H7.29995C6.87995 18.99 6.40995 18.66 6.26995 18.26L2.12995 6.66999C1.53996 5.00999 2.22996 4.49999 3.64996 5.51999L7.54995 8.30999C8.19995 8.75999 8.93995 8.52999 9.21995 7.79999L10.98 3.10999C11.54 1.60999 12.47 1.60999 13.03 3.10999L14.79 7.79999C15.07 8.52999 15.81 8.75999 16.45 8.30999L17.08 7.85999" stroke="#292D32" stroke-width="1.5" stroke-linecap="round" stroke-linejoin="round"/>
<path d="M6.5 22H17.5" stroke="#292D32" stroke-width="1.5" stroke-linecap="round" stroke-linejoin="round"/>
<path d="M9.5 14H14.5" stroke="#292D32" stroke-width="1.5" stroke-linecap="round" stroke-linejoin="round"/>
</svg>
