<svg width="24" height="24" viewBox="0 0 24 24" fill="none" xmlns="http://www.w3.org/2000/svg">
<path opacity="0.4" d="M16.19 2H7.81C4.17 2 2 4.17 2 7.81V16.18C2 19.83 4.17 22 7.81 22H16.18C19.82 22 21.99 19.83 21.99 16.19V7.81C22 4.17 19.83 2 16.19 2Z" fill="#292D32"/>
<path d="M12 14.9099C11.81 14.9099 11.62 14.8399 11.47 14.6899L7.93997 11.1599C7.64997 10.8699 7.64997 10.3899 7.93997 10.0999C8.22997 9.80995 8.70997 9.80995 8.99997 10.0999L12 13.0999L15 10.0999C15.29 9.80995 15.77 9.80995 16.06 10.0999C16.35 10.3899 16.35 10.8699 16.06 11.1599L12.53 14.6899C12.38 14.8399 12.19 14.9099 12 14.9099Z" fill="#292D32"/>
</svg>
