<svg width="24" height="24" viewBox="0 0 24 24" fill="none" xmlns="http://www.w3.org/2000/svg">
<path d="M21.6999 6.39001H14.4299C14.0199 6.39001 13.6799 6.05001 13.6799 5.64001C13.6799 5.23001 14.0199 4.89001 14.4299 4.89001H21.6999C22.1099 4.89001 22.4499 5.23001 22.4499 5.64001C22.4499 6.05001 22.1099 6.39001 21.6999 6.39001Z" fill="#292D32"/>
<path d="M9.58005 6.39001H2.30005C1.89005 6.39001 1.55005 6.05001 1.55005 5.64001C1.55005 5.23001 1.89005 4.89001 2.30005 4.89001H9.57005C9.98005 4.89001 10.32 5.23001 10.32 5.64001C10.32 6.05001 9.99005 6.39001 9.58005 6.39001Z" fill="#292D32"/>
<path d="M21.6999 16.08H14.4299C14.0199 16.08 13.6799 15.74 13.6799 15.33C13.6799 14.92 14.0199 14.58 14.4299 14.58H21.6999C22.1099 14.58 22.4499 14.92 22.4499 15.33C22.4499 15.74 22.1099 16.08 21.6999 16.08Z" fill="#292D32"/>
<path d="M21.6999 22.14H14.4299C14.0199 22.14 13.6799 21.8 13.6799 21.39C13.6799 20.98 14.0199 20.64 14.4299 20.64H21.6999C22.1099 20.64 22.4499 20.98 22.4499 21.39C22.4499 21.8 22.1099 22.14 21.6999 22.14Z" fill="#292D32"/>
<path d="M18.0901 10.02C17.6801 10.02 17.3401 9.68 17.3401 9.27V2C17.3401 1.59 17.6801 1.25 18.0901 1.25C18.5001 1.25 18.8401 1.59 18.8401 2V9.27C18.8401 9.69 18.5101 10.02 18.0901 10.02Z" fill="#292D32"/>
<path d="M2.29999 22.75C2.10999 22.75 1.91999 22.68 1.76999 22.53C1.47999 22.24 1.47999 21.76 1.76999 21.47L9.03999 14.2C9.32999 13.91 9.80999 13.91 10.1 14.2C10.39 14.49 10.39 14.97 10.1 15.26L2.82999 22.53C2.68999 22.68 2.49999 22.75 2.29999 22.75Z" fill="#292D32"/>
<path d="M9.58 22.75C9.39 22.75 9.2 22.68 9.05 22.53L1.78 15.26C1.49 14.97 1.49 14.49 1.78 14.2C2.07 13.91 2.55 13.91 2.84 14.2L10.11 21.47C10.4 21.76 10.4 22.24 10.11 22.53C9.96 22.68 9.77 22.75 9.58 22.75Z" fill="#292D32"/>
</svg>
