<svg width="24" height="24" viewBox="0 0 24 24" fill="none" xmlns="http://www.w3.org/2000/svg">
<path opacity="0.4" fill-rule="evenodd" clip-rule="evenodd" d="M23 15.22C23.4142 15.22 23.75 15.5558 23.75 15.97C23.75 20.2542 20.2842 23.72 16 23.72C15.7298 23.72 15.4805 23.5746 15.3474 23.3395C15.2142 23.1044 15.2179 22.8158 15.3569 22.5841L16.4069 20.8341C16.62 20.4789 17.0807 20.3637 17.4359 20.5769C17.7911 20.79 17.9062 21.2507 17.6931 21.6058L17.4218 22.058C20.1909 21.4156 22.25 18.9365 22.25 15.97C22.25 15.5558 22.5858 15.22 23 15.22Z" fill="#292D32"/>
<path opacity="0.4" fill-rule="evenodd" clip-rule="evenodd" d="M6.5782 1.88191C3.8091 2.52434 1.75 5.00339 1.75 7.96997C1.75 8.38418 1.41421 8.71997 1 8.71997C0.585786 8.71997 0.25 8.38418 0.25 7.96997C0.25 3.68576 3.71579 0.219971 8 0.219971C8.2702 0.219971 8.51952 0.365315 8.65265 0.600446C8.78578 0.835578 8.78214 1.12414 8.64312 1.35584L7.59312 3.10584C7.38001 3.46103 6.91931 3.5762 6.56413 3.36309C6.20894 3.14998 6.09377 2.68928 6.30688 2.3341L6.5782 1.88191Z" fill="#292D32"/>
<path opacity="0.4" d="M14.8498 15.33C14.8498 18.74 12.0898 21.4999 8.67977 21.4999C5.26977 21.4999 2.50977 18.74 2.50977 15.33C2.50977 11.92 5.26977 9.15991 8.67977 9.15991C8.83977 9.15991 8.98977 9.16993 9.15977 9.17993C12.1898 9.40993 14.6098 11.8299 14.8398 14.8599C14.8398 15.0099 14.8498 15.16 14.8498 15.33Z" fill="#292D32"/>
<path d="M21.5002 8.66998C21.5002 12.08 18.7402 14.84 15.3302 14.84H14.8402C14.6102 11.81 12.1902 9.38997 9.16016 9.15997V8.66998C9.16016 5.25998 11.9202 2.5 15.3302 2.5C18.7402 2.5 21.5002 5.25998 21.5002 8.66998Z" fill="#292D32"/>
<path d="M11.1201 15.0099C11.2401 14.7599 11.3101 14.49 11.3101 14.2C11.3101 13.2 10.4301 12.3199 9.43012 12.3199H9.17012V11.9399C9.17012 11.5299 8.83012 11.1899 8.42012 11.1899C8.01012 11.1899 7.67012 11.5299 7.67012 11.9399V12.3199H6.62012C6.21012 12.3199 5.87012 12.6599 5.87012 13.0699V15.3199V17.5699C5.87012 17.9799 6.21012 18.3199 6.62012 18.3199H7.67012V18.7C7.67012 19.11 8.01012 19.45 8.42012 19.45C8.83012 19.45 9.17012 19.11 9.17012 18.7V18.3199H9.83012C10.9501 18.3199 11.8701 17.4799 11.8701 16.4399C11.8701 15.8699 11.5701 15.3499 11.1201 15.0099ZM7.37012 13.8199H9.43012C9.64012 13.8199 9.81012 14.05 9.81012 14.2C9.81012 14.41 9.64012 14.58 9.43012 14.58H7.37012V13.8199ZM9.83012 16.83H7.36012V16.08H9.42012H9.82012C10.1401 16.08 10.3601 16.28 10.3601 16.46C10.3601 16.64 10.1501 16.83 9.83012 16.83Z" fill="#292D32"/>
</svg>
