<svg width="24" height="24" viewBox="0 0 24 24" fill="none" xmlns="http://www.w3.org/2000/svg">
<path opacity="0.4" d="M16.19 2H7.82C4.17 2 2 4.17 2 7.81V16.18C2 19.82 4.17 21.99 7.81 21.99H16.18C19.82 21.99 21.99 19.82 21.99 16.18V7.81C22 4.17 19.83 2 16.19 2Z" fill="#292D32"/>
<path d="M10.18 6.09998C9.77002 6.09998 9.43002 6.43998 9.43002 6.84998V15.35L7.67001 13.59C7.38001 13.3 6.90002 13.3 6.61002 13.59C6.32002 13.88 6.32002 14.36 6.61002 14.65L9.65002 17.69C9.72002 17.76 9.80002 17.81 9.89002 17.85C9.98002 17.89 10.08 17.91 10.18 17.91C10.28 17.91 10.37 17.89 10.47 17.85C10.65 17.77 10.8 17.63 10.88 17.44C10.92 17.35 10.94 17.25 10.94 17.15V6.84998C10.93 6.42998 10.6 6.09998 10.18 6.09998Z" fill="#292D32"/>
<path d="M17.39 9.35998L14.35 6.31998C14.28 6.24998 14.2 6.19998 14.11 6.15998C13.93 6.07998 13.72 6.07998 13.54 6.15998C13.36 6.23998 13.21 6.37998 13.13 6.56998C13.09 6.65998 13.07 6.75998 13.07 6.85998V17.17C13.07 17.58 13.41 17.92 13.82 17.92C14.23 17.92 14.57 17.58 14.57 17.17V8.66998L16.33 10.43C16.48 10.58 16.67 10.65 16.86 10.65C17.05 10.65 17.24 10.58 17.39 10.43C17.68 10.12 17.68 9.64998 17.39 9.35998Z" fill="#292D32"/>
</svg>
