<svg width="24" height="24" viewBox="0 0 24 24" fill="none" xmlns="http://www.w3.org/2000/svg">
<path opacity="0.4" d="M20.61 10.83C19.84 9.90996 18.85 9.30996 17.7 9.04996C17.44 7.88996 16.99 6.88996 16.33 6.05996C16.31 6.02996 16.29 5.99996 16.27 5.97996C14.07 3.31996 10.47 3.32996 8.04001 4.70996C5.96001 5.89996 4.19001 8.40996 5.12001 11.99C2.99001 12.51 2.01001 14.37 2.01001 16.05C2.01001 17.93 3.24001 20.04 5.98001 20.24H16.32C16.33 20.24 16.35 20.24 16.36 20.24C17.78 20.24 19.14 19.71 20.19 18.75C22.7 16.53 22.37 12.91 20.61 10.83Z" fill="#292D32"/>
<path d="M21.76 8.74001C21.76 9.64001 21.44 10.5 20.86 11.16C20.79 11.05 20.7 10.94 20.61 10.83C19.85 9.92001 18.85 9.30001 17.7 9.05001C17.45 7.89001 16.99 6.90001 16.33 6.07001C16.32 6.04001 16.29 6.01001 16.27 5.99001C16.17 5.87001 16.06 5.76001 15.96 5.65001C16.57 5.23001 17.27 5.01001 18.03 5.01001C20.09 5.01001 21.76 6.68001 21.76 8.74001Z" fill="#292D32"/>
</svg>
