<svg width="24" height="24" viewBox="0 0 24 24" fill="none" xmlns="http://www.w3.org/2000/svg">
<path d="M14.9702 22.75H8.97021C3.54022 22.75 1.22021 20.43 1.22021 15V9C1.22021 3.57 3.54022 1.25 8.97021 1.25H14.9702C20.4002 1.25 22.7202 3.57 22.7202 9V15C22.7202 20.43 20.4102 22.75 14.9702 22.75ZM8.97021 2.75C4.36021 2.75 2.72021 4.39 2.72021 9V15C2.72021 19.61 4.36021 21.25 8.97021 21.25H14.9702C19.5802 21.25 21.2202 19.61 21.2202 15V9C21.2202 4.39 19.5802 2.75 14.9702 2.75H8.97021Z" fill="#292D32"/>
<path d="M22 16.25H2C1.59 16.25 1.25 15.91 1.25 15.5C1.25 15.09 1.59 14.75 2 14.75H22C22.41 14.75 22.75 15.09 22.75 15.5C22.75 15.91 22.41 16.25 22 16.25Z" fill="#292D32"/>
<path d="M11.9999 11.81C11.8099 11.81 11.6199 11.74 11.4699 11.59L8.90988 9.03C8.61988 8.74 8.61988 8.26 8.90988 7.97C9.19988 7.68 9.67988 7.68 9.96988 7.97L11.9999 10L14.0299 7.97C14.3199 7.68 14.7999 7.68 15.0899 7.97C15.3799 8.26 15.3799 8.74 15.0899 9.03L12.5299 11.59C12.3799 11.74 12.1899 11.81 11.9999 11.81Z" fill="#292D32"/>
</svg>
