<svg width="24" height="24" viewBox="0 0 24 24" fill="none" xmlns="http://www.w3.org/2000/svg">
<path opacity="0.4" d="M16.82 2H7.18001C5.05001 2 3.32001 3.74 3.32001 5.86V19.95C3.32001 21.75 4.61001 22.51 6.19001 21.64L11.07 18.93C11.59 18.64 12.43 18.64 12.94 18.93L17.82 21.64C19.4 22.52 20.69 21.76 20.69 19.95V5.86C20.68 3.74 18.95 2 16.82 2Z" fill="#292D32"/>
<path d="M14.5 11.3999H9.5C9.09 11.3999 8.75 11.0599 8.75 10.6499C8.75 10.2399 9.09 9.8999 9.5 9.8999H14.5C14.91 9.8999 15.25 10.2399 15.25 10.6499C15.25 11.0599 14.91 11.3999 14.5 11.3999Z" fill="#292D32"/>
</svg>
