<svg width="24" height="24" viewBox="0 0 24 24" fill="none" xmlns="http://www.w3.org/2000/svg">
<path opacity="0.4" d="M21.05 11.71V17.7C21.05 20.46 18.81 22.7 16.05 22.7H7.31006C7.08006 22.7 6.85007 22.68 6.63007 22.65C7.00007 22.49 7.33007 22.2699 7.63007 21.9999C7.67007 21.9699 7.70004 21.94 7.73004 21.9C8.00004 21.67 8.23004 21.3799 8.42004 21.0599C8.79004 20.4599 9.00006 19.7499 9.00006 18.9999C9.00006 17.9499 8.59005 17 7.93005 16.28C7.83005 16.17 7.72004 16.0599 7.60004 15.9699C6.90004 15.3599 6.00006 14.9999 5.00006 14.9999C4.29006 14.9999 3.62004 15.19 3.04004 15.52C2.85004 15.62 2.67006 15.7399 2.50006 15.8799C2.43006 15.9299 2.37006 15.9899 2.31006 16.0499V11.78C3.07006 12.6 4.15007 13.0699 5.32007 13.0699C6.58007 13.0699 7.79005 12.4399 8.55005 11.4299C9.23005 12.4399 10.3901 13.0699 11.6801 13.0699C12.9601 13.0699 14.1 12.4699 14.79 11.4699C15.56 12.4599 16.7501 13.0699 17.9901 13.0699C19.2001 13.0699 20.3 12.58 21.05 11.71Z" fill="#292D32"/>
<path d="M14.67 1.57007H8.67002L7.93003 8.93005C7.87003 9.61005 7.97001 10.2501 8.22001 10.8301C8.80001 12.1901 10.16 13.0701 11.68 13.0701C13.22 13.0701 14.5501 12.2101 15.1501 10.8401C15.3301 10.4101 15.44 9.91009 15.45 9.40009V9.21008L14.67 1.57007Z" fill="#292D32"/>
<path opacity="0.6" d="M22.0399 8.59009L21.7599 5.81006C21.3399 2.79006 19.9699 1.56006 17.0399 1.56006H13.2L13.9399 9.06006C13.9499 9.16006 13.96 9.27008 13.96 9.46008C14.02 9.98008 14.1799 10.4601 14.4199 10.8901C15.1399 12.2101 16.5399 13.0601 17.9999 13.0601C19.3299 13.0601 20.53 12.4701 21.28 11.4301C21.87 10.6401 22.1399 9.63009 22.0399 8.59009Z" fill="#292D32"/>
<path opacity="0.6" d="M6.27007 1.57007C3.33007 1.57007 1.97003 2.80004 1.54003 5.85004L1.27007 8.60004C1.17007 9.67004 1.46008 10.7101 2.09008 11.5201C2.85008 12.5101 4.02006 13.0701 5.32006 13.0701C6.78006 13.0701 8.18006 12.22 8.89006 10.92C9.15006 10.47 9.32004 9.95003 9.37004 9.41003L10.1501 1.58008H6.27007V1.57007Z" fill="#292D32"/>
<path d="M7.92999 16.28C7.82999 16.17 7.71998 16.06 7.59998 15.97C6.89998 15.36 6 15 5 15C4.29 15 3.61998 15.19 3.03998 15.52C2.84998 15.62 2.67 15.74 2.5 15.88C1.58 16.61 1 17.74 1 19C1 19.75 1.21002 20.46 1.58002 21.06C1.67002 21.22 1.78002 21.37 1.90002 21.51C1.92002 21.54 1.94997 21.56 1.96997 21.59C2.68997 22.45 3.78 23 5 23C6.01 23 6.93001 22.63 7.63 22C7.67 21.97 7.69998 21.94 7.72998 21.9C7.99998 21.67 8.22998 21.38 8.41998 21.06C8.78998 20.46 9 19.75 9 19C9 17.95 8.58999 17 7.92999 16.28ZM6.5 19.73H5.75V20.51C5.75 20.92 5.41 21.26 5 21.26C4.59 21.26 4.25 20.92 4.25 20.51V19.73H3.5C3.09 19.73 2.75 19.39 2.75 18.98C2.75 18.57 3.09 18.23 3.5 18.23H4.25V17.52C4.25 17.11 4.59 16.77 5 16.77C5.41 16.77 5.75 17.11 5.75 17.52V18.23H6.5C6.91 18.23 7.25 18.57 7.25 18.98C7.25 19.39 6.91 19.73 6.5 19.73Z" fill="#292D32"/>
</svg>
