<svg width="24" height="24" viewBox="0 0 24 24" fill="none" xmlns="http://www.w3.org/2000/svg">
<path d="M2.92004 8.58003C2.92004 7.46003 3.52002 6.41999 4.49002 5.84999L10.43 2.42C11.4 1.86 12.6 1.86 13.58 2.42L19.52 5.84999C20.49 6.40999 21.09 7.45003 21.09 8.58003V15.42C21.09 16.54 20.49 17.58 19.52 18.15L13.58 21.58C12.61 22.14 11.41 22.14 10.43 21.58L4.49002 18.15C3.52002 17.59 2.92004 16.55 2.92004 15.42V12.66" stroke="#292D32" stroke-width="1.5" stroke-linecap="round" stroke-linejoin="round"/>
<path d="M9.75 12V10.8C9.75 9.26001 10.84 8.63005 12.17 9.40005L13.21 10L14.25 10.6C15.58 11.37 15.58 12.63 14.25 13.4L13.21 14L12.17 14.6C10.84 15.37 9.75 14.74 9.75 13.2V12Z" stroke="#292D32" stroke-width="1.5" stroke-miterlimit="10" stroke-linecap="round" stroke-linejoin="round"/>
</svg>
