<svg width="24" height="24" viewBox="0 0 24 24" fill="none" xmlns="http://www.w3.org/2000/svg">
<path opacity="0.4" d="M20.68 6.32007V19.9501C20.68 21.7501 19.39 22.5101 17.82 21.6401L12.94 18.9201C12.42 18.6401 11.58 18.6401 11.06 18.9201L6.18 21.6401C5.76 21.8701 5.36 21.9901 5 22.0001L20.68 6.32007Z" fill="#292D32"/>
<path d="M20.12 3.88L3.39001 20.61C3.34001 20.41 3.32001 20.19 3.32001 19.95V5.86C3.32001 3.74 5.05001 2 7.18001 2H16.82C18.22 2 19.45 2.75 20.12 3.88Z" fill="#292D32"/>
<path d="M21.77 2.22988C21.47 1.92988 20.98 1.92988 20.68 2.22988L2.23 20.6899C1.93 20.9899 1.93 21.4799 2.23 21.7799C2.38 21.9199 2.57 21.9999 2.77 21.9999C2.97 21.9999 3.16 21.9199 3.31 21.7699L21.77 3.30988C22.08 3.00988 22.08 2.52988 21.77 2.22988Z" fill="#292D32"/>
</svg>
