<svg width="24" height="24" viewBox="0 0 24 24" fill="none" xmlns="http://www.w3.org/2000/svg">
<path opacity="0.4" d="M16 2H8C4 2 2 4 2 8V21C2 21.55 2.45 22 3 22H16C20 22 22 20 22 16V8C22 4 20 2 16 2Z" fill="#292D32"/>
<path d="M16.5499 7.46001C15.2899 6.20001 14.0699 6.17001 12.7799 7.46001L11.9899 8.25001C11.9199 8.32001 11.9 8.42001 11.92 8.51001C12.41 10.23 13.7799 11.6 15.4999 12.09C15.5199 12.1 15.5499 12.1 15.5799 12.1C15.6499 12.1 15.7199 12.07 15.7699 12.02L16.5499 11.24C17.1899 10.6 17.4999 9.99001 17.4999 9.37001C17.4999 8.72001 17.1899 8.10001 16.5499 7.46001Z" fill="#292D32"/>
<path d="M14.3399 12.67C14.1499 12.58 13.9699 12.49 13.7999 12.38C13.6599 12.3 13.52 12.21 13.39 12.11C13.28 12.04 13.1499 11.94 13.0199 11.83C12.9999 11.82 12.9599 11.79 12.9099 11.73C12.6999 11.55 12.4599 11.31 12.2399 11.06C12.2199 11.05 12.1899 11 12.1499 10.94C12.0799 10.86 11.9799 10.73 11.8799 10.59C11.7999 10.49 11.7099 10.35 11.6299 10.21C11.5299 10.04 11.4299 9.86 11.3499 9.68C11.2599 9.48 11.1899 9.3 11.1199 9.12L7.34995 12.89C7.09995 13.14 6.86995 13.6 6.81995 13.94L6.52994 16.02C6.45994 16.46 6.58993 16.87 6.85993 17.15C7.08993 17.38 7.40995 17.5 7.75995 17.5C7.83995 17.5 7.90993 17.49 7.98993 17.48L10.07 17.19C10.41 17.14 10.8699 16.91 11.1199 16.66L14.89 12.89C14.71 12.82 14.5299 12.75 14.3399 12.67Z" fill="#292D32"/>
</svg>
