<svg width="25" height="24" viewBox="0 0 25 24" fill="none" xmlns="http://www.w3.org/2000/svg">
<path d="M8.25984 21.2466C8.90687 20.5996 9.27857 19.7736 9.37494 18.9201C9.50572 17.7843 9.12714 16.6073 8.25984 15.74C7.7436 15.2237 7.11033 14.8796 6.44265 14.7213C5.16925 14.3977 3.75817 14.735 2.75321 15.74C2.058 16.4352 1.67942 17.3231 1.63123 18.2386C1.59682 18.631 1.63123 19.0371 1.73448 19.4294C1.8928 20.0971 2.23696 20.7304 2.75321 21.2466C4.27442 22.7678 6.73864 22.7678 8.25984 21.2466ZM6.96578 17.7774C7.36502 17.7774 7.69541 18.1078 7.69541 18.5071C7.68853 18.9132 7.36502 19.2367 6.9589 19.2436L6.23615 19.2367L6.24304 19.9319C6.23616 20.338 5.91264 20.6615 5.50653 20.6684C5.10041 20.6615 4.7769 20.338 4.77001 19.9319L4.7769 19.2367L4.05415 19.2436C3.64804 19.2367 3.32452 18.9132 3.31764 18.5071C3.32452 18.3074 3.40712 18.1285 3.5379 17.9977C3.66869 17.8669 3.84765 17.7843 4.04727 17.7774L4.7769 17.7774L4.7769 17.0203C4.7769 16.8138 4.8595 16.6348 4.99028 16.504C5.12106 16.3732 5.30003 16.2906 5.50653 16.2906C5.90576 16.2906 6.23615 16.621 6.23615 17.0203L6.23616 17.7774L6.96578 17.7774Z" fill="#292D32"/>
<path d="M15.0965 3.84581V7.5449H13.6364V3.84581C13.6364 3.58298 13.4027 3.45643 13.247 3.45643C13.1983 3.45643 13.1496 3.46617 13.101 3.48564L5.38155 6.39623C4.86562 6.59092 4.53465 7.07765 4.53465 7.63251V8.28472C3.64882 8.94666 3.07448 10.0077 3.07448 11.205V7.63251C3.07448 6.47411 3.7851 5.44226 4.86562 5.03341L12.5948 2.11308C12.8089 2.0352 13.0328 1.99627 13.247 1.99627C14.2204 1.99627 15.0965 2.78476 15.0965 3.84581Z" fill="#292D32"/>
<path d="M21.5714 14.1164V15.0899C21.5714 15.3527 21.367 15.5669 21.0944 15.5766H19.6732C19.1573 15.5766 18.69 15.197 18.6511 14.6908C18.6219 14.389 18.7387 14.1067 18.9334 13.912C19.1086 13.7271 19.352 13.6297 19.6148 13.6297H21.0847C21.367 13.6395 21.5714 13.8536 21.5714 14.1164Z" fill="#292D32"/>
<path d="M19.6036 12.6061H20.5965C21.1319 12.6061 21.5699 12.1681 21.5699 11.6327V11.2044C21.5699 9.18935 19.9248 7.54423 17.9098 7.54423H6.73464C5.90721 7.54423 5.14792 7.8168 4.53465 8.28405C3.64882 8.94599 3.07448 10.007 3.07448 11.2044V12.9371C3.07448 13.307 3.46386 13.5406 3.8143 13.4238C4.35943 13.2389 4.93376 13.1415 5.5081 13.1415C8.45763 13.1415 10.862 15.5459 10.862 18.4955C10.862 19.1964 10.6771 19.9654 10.3851 20.6468C10.2293 20.9972 10.4727 21.4158 10.8523 21.4158H17.9098C19.9248 21.4158 21.5699 19.7707 21.5699 17.7557V17.5707C21.5699 17.0353 21.1319 16.5973 20.5965 16.5973H19.7496C18.8151 16.5973 17.9195 16.0229 17.6761 15.1176C17.4815 14.3778 17.7151 13.6575 18.2018 13.1902C18.562 12.8203 19.0584 12.6061 19.6036 12.6061ZM14.2691 12.4115H9.40187C9.00276 12.4115 8.67179 12.0805 8.67179 11.6814C8.67179 11.2823 9.00276 10.9513 9.40187 10.9513H14.2691C14.6682 10.9513 14.9992 11.2823 14.9992 11.6814C14.9992 12.0805 14.6682 12.4115 14.2691 12.4115Z" fill="#292D32"/>
</svg>
