<svg width="24" height="24" viewBox="0 0 24 24" fill="none" xmlns="http://www.w3.org/2000/svg">
<path d="M14.5 16H9.5" stroke="#292D32" stroke-width="1.5" stroke-miterlimit="10" stroke-linecap="round" stroke-linejoin="round"/>
<path d="M12.9 2.52003L12.87 2.59003L9.96995 9.32003H7.11995C6.43995 9.32003 5.78995 9.46003 5.19995 9.71003L6.94995 5.53003L6.98995 5.43003L7.05995 5.27003C7.07995 5.21003 7.09995 5.15003 7.12995 5.10003C8.43995 2.07003 9.91995 1.38003 12.9 2.52003Z" stroke="#292D32" stroke-width="1.5" stroke-linecap="round" stroke-linejoin="round"/>
<path d="M18.29 9.52002C17.84 9.38002 17.36 9.32002 16.88 9.32002H9.96997L12.87 2.59002L12.9 2.52002C13.05 2.57002 13.19 2.64002 13.34 2.70002L15.55 3.63002C16.78 4.14002 17.64 4.67002 18.16 5.31002C18.26 5.43002 18.34 5.54002 18.41 5.67002C18.5 5.81002 18.57 5.95002 18.61 6.10002C18.65 6.19002 18.68 6.28002 18.7 6.36002C18.97 7.20002 18.81 8.23002 18.29 9.52002Z" stroke="#292D32" stroke-width="1.5" stroke-linecap="round" stroke-linejoin="round"/>
<path d="M12 22H8.1C7.86 22 7.62 21.98 7.39 21.95C4.21 21.74 2.51 20.04 2.3 16.86C2.27 16.63 2.25 16.39 2.25 16.15V14.2C2.25 12.19 3.47 10.46 5.21 9.71001C5.81 9.46001 6.45 9.32001 7.13 9.32001H16.89C17.38 9.32001 17.86 9.39001 18.3 9.52001C20.3 10.12 21.76 11.99 21.76 14.19V16.14C21.76 16.34 21.75 16.54 21.74 16.74C21.55 20.24 19.6 22 15.9 22" stroke="#292D32" stroke-width="1.5" stroke-linecap="round" stroke-linejoin="round"/>
<path d="M6.94999 5.53003L5.19999 9.71003C3.45999 10.46 2.23999 12.19 2.23999 14.2V11.27C2.23999 8.43003 4.25999 6.06003 6.94999 5.53003Z" stroke="#292D32" stroke-width="1.5" stroke-linecap="round" stroke-linejoin="round"/>
<path d="M21.76 11.27V14.2C21.76 12 20.3 10.13 18.3 9.52998C18.82 8.22998 18.97 7.20998 18.72 6.35998C18.7 6.26998 18.67 6.17998 18.63 6.09998C20.49 7.05998 21.76 9.02998 21.76 11.27Z" stroke="#292D32" stroke-width="1.5" stroke-linecap="round" stroke-linejoin="round"/>
</svg>
