<svg width="24" height="24" viewBox="0 0 24 24" fill="none" xmlns="http://www.w3.org/2000/svg">
<path d="M18.9001 15.03C16.6901 15.03 14.9001 16.82 14.9001 19.03C14.9001 21.24 16.6901 23.03 18.9001 23.03C21.1101 23.03 22.9001 21.24 22.9001 19.03C22.9001 16.82 21.1101 15.03 18.9001 15.03ZM20.5001 20.68C20.3501 20.83 20.1601 20.9 19.9701 20.9C19.7801 20.9 19.5901 20.83 19.4401 20.68L18.9101 20.15L18.3601 20.7C18.2101 20.85 18.0201 20.92 17.8301 20.92C17.6401 20.92 17.4501 20.85 17.3001 20.7C17.0101 20.41 17.0101 19.93 17.3001 19.64L17.8501 19.09L17.3201 18.56C17.0301 18.27 17.0301 17.79 17.3201 17.5C17.6101 17.21 18.0901 17.21 18.3801 17.5L18.9101 18.03L19.4101 17.53C19.7001 17.24 20.1801 17.24 20.4701 17.53C20.7601 17.82 20.7601 18.3 20.4701 18.59L19.9701 19.09L20.5001 19.62C20.7901 19.91 20.7901 20.39 20.5001 20.68Z" fill="#292D32"/>
<path d="M22 7.54002V9.00002H2V7.54002C2 5.25002 3.86002 3.40002 6.15002 3.40002H17.85C20.14 3.40002 22 5.25002 22 7.54002Z" fill="#292D32"/>
<path opacity="0.4" d="M2 9V16.46C2 18.75 3.85001 20.6 6.14001 20.6H12.4C12.98 20.6 13.48 20.11 13.43 19.53C13.29 18 13.78 16.34 15.14 15.02C15.7 14.47 16.39 14.05 17.14 13.81C18.39 13.41 19.6 13.46 20.67 13.82C21.32 14.04 22 13.57 22 12.88V9H2ZM8 17.25H6C5.59 17.25 5.25 16.91 5.25 16.5C5.25 16.09 5.59 15.75 6 15.75H8C8.41 15.75 8.75 16.09 8.75 16.5C8.75 16.91 8.41 17.25 8 17.25Z" fill="#292D32"/>
<path d="M8.75 16.5C8.75 16.91 8.41 17.25 8 17.25H6C5.59 17.25 5.25 16.91 5.25 16.5C5.25 16.09 5.59 15.75 6 15.75H8C8.41 15.75 8.75 16.09 8.75 16.5Z" fill="#292D32"/>
</svg>
