<svg width="24" height="24" viewBox="0 0 24 24" fill="none" xmlns="http://www.w3.org/2000/svg">
<path opacity="0.4" d="M17 3.74999H13.07L14.48 2.58001C14.8 2.31001 14.84 1.84001 14.58 1.52001C14.31 1.20001 13.84 1.15998 13.52 1.41998L10.52 3.91998C10.35 4.05998 10.25 4.26999 10.25 4.49999C10.25 4.72999 10.35 4.93001 10.52 5.08001L13.52 7.58001C13.66 7.70001 13.83 7.74999 14 7.74999C14.21 7.74999 14.43 7.65997 14.58 7.47997C14.85 7.15997 14.8 6.68998 14.48 6.41998L13.07 5.24999H17C17.69 5.24999 18.25 5.80999 18.25 6.49999V16C18.25 16.41 18.59 16.75 19 16.75C19.41 16.75 19.75 16.41 19.75 16V6.49999C19.75 4.97999 18.52 3.74999 17 3.74999Z" fill="#292D32"/>
<path d="M19 22C20.6569 22 22 20.6569 22 19C22 17.3431 20.6569 16 19 16C17.3431 16 16 17.3431 16 19C16 20.6569 17.3431 22 19 22Z" fill="#292D32"/>
<path opacity="0.4" d="M13.48 18.92L10.48 16.42C10.16 16.15 9.69001 16.2 9.42001 16.52C9.15001 16.84 9.19999 17.31 9.51999 17.58L10.93 18.75H7C6.31 18.75 5.75 18.19 5.75 17.5V8C5.75 7.59 5.41 7.25 5 7.25C4.59 7.25 4.25 7.59 4.25 8V17.5C4.25 19.02 5.48 20.25 7 20.25H10.93L9.51999 21.42C9.19999 21.69 9.16001 22.16 9.42001 22.48C9.57001 22.66 9.78 22.75 10 22.75C10.17 22.75 10.34 22.69 10.48 22.58L13.48 20.08C13.65 19.94 13.75 19.73 13.75 19.5C13.75 19.27 13.65 19.07 13.48 18.92Z" fill="#292D32"/>
<path d="M5 8C6.65685 8 8 6.65685 8 5C8 3.34315 6.65685 2 5 2C3.34315 2 2 3.34315 2 5C2 6.65685 3.34315 8 5 8Z" fill="#292D32"/>
</svg>
