<svg width="24" height="24" viewBox="0 0 24 24" fill="none" xmlns="http://www.w3.org/2000/svg">
<path opacity="0.4" d="M16.82 1.90991H7.18001C5.06001 1.90991 3.32001 3.64991 3.32001 5.76991V19.8599C3.32001 21.6599 4.61001 22.4199 6.19001 21.5499L11.07 18.8399C11.59 18.5499 12.43 18.5499 12.94 18.8399L17.82 21.5499C19.4 22.4299 20.69 21.6699 20.69 19.8599V5.76991C20.68 3.64991 18.95 1.90991 16.82 1.90991Z" fill="#292D32"/>
<path d="M11.09 13.2499C10.9 13.2499 10.71 13.1799 10.56 13.0299L9.06003 11.5299C8.77003 11.2399 8.77003 10.7599 9.06003 10.4699C9.35003 10.1799 9.83003 10.1799 10.12 10.4699L11.09 11.4399L14.56 7.96994C14.85 7.67994 15.33 7.67994 15.62 7.96994C15.91 8.25994 15.91 8.73994 15.62 9.02994L11.62 13.0299C11.47 13.1799 11.28 13.2499 11.09 13.2499Z" fill="#292D32"/>
</svg>
