<svg width="24" height="24" viewBox="0 0 24 24" fill="none" xmlns="http://www.w3.org/2000/svg">
<path d="M12.38 16.92H10.09C9.68 16.92 9.34 16.58 9.34 16.17C9.34 15.76 9.68 15.42 10.09 15.42H12.38C12.81 15.42 13.16 15.0701 13.16 14.6401C13.16 14.2101 12.81 13.86 12.38 13.86H10.09C9.85 13.86 9.62001 13.74 9.48001 13.55C9.34001 13.36 9.30001 13.1001 9.38001 12.8701L10.14 10.5801C10.24 10.2701 10.53 10.0701 10.85 10.0701H13.91C14.32 10.0701 14.66 10.4101 14.66 10.8201C14.66 11.2301 14.32 11.5701 13.91 11.5701H11.39L11.13 12.36H12.38C13.64 12.36 14.66 13.3801 14.66 14.6401C14.66 15.9001 13.64 16.92 12.38 16.92Z" fill="#292D32"/>
<path opacity="0.4" d="M12 3.47994C11.92 3.47994 11.84 3.48995 11.76 3.48995L12.58 2.46993C12.84 2.14993 12.79 1.66994 12.46 1.41994C12.13 1.16994 11.67 1.20994 11.41 1.53994L9.42996 4.00997C9.41996 4.01997 9.41997 4.03995 9.40997 4.04995C9.37997 4.08995 9.35997 4.13996 9.33997 4.18996C9.31997 4.22996 9.29998 4.26997 9.28998 4.31997C9.27998 4.36997 9.27997 4.40998 9.27997 4.45998C9.27997 4.50998 9.27997 4.55994 9.27997 4.60994C9.27997 4.62994 9.27997 4.63993 9.27997 4.65993C9.28997 4.68993 9.30998 4.71996 9.31998 4.74996C9.33998 4.79996 9.35997 4.83997 9.37997 4.88997C9.40997 4.92997 9.43997 4.96996 9.46997 4.99996C9.48997 5.02996 9.50998 5.05997 9.53998 5.07997C9.54998 5.08997 9.56997 5.09994 9.58997 5.10994C9.61997 5.12994 9.64998 5.13993 9.66998 5.15993C9.71998 5.18993 9.77997 5.20993 9.83997 5.21993C9.86997 5.22993 9.89996 5.22995 9.92996 5.23995C9.95996 5.23995 9.97998 5.24996 10.01 5.24996C10.04 5.24996 10.06 5.23994 10.08 5.22994C10.11 5.22994 10.14 5.23994 10.17 5.22994C10.81 5.07994 11.41 5.00997 11.98 5.00997C16.47 5.00997 20.12 8.65998 20.12 13.15C20.12 17.64 16.47 21.2899 11.98 21.2899C7.48998 21.2899 3.83997 17.64 3.83997 13.15C3.83997 11.41 4.40996 9.72994 5.48996 8.28994C5.73996 7.95994 5.66997 7.48995 5.33997 7.23995C5.00997 6.98995 4.53998 7.05997 4.28998 7.38997C3.00998 9.08997 2.33997 11.08 2.33997 13.15C2.33997 18.46 6.65998 22.7899 11.98 22.7899C17.3 22.7899 21.62 18.47 21.62 13.15C21.62 7.82998 17.31 3.47994 12 3.47994Z" fill="#292D32"/>
</svg>
