<svg width="24" height="24" viewBox="0 0 24 24" fill="none" xmlns="http://www.w3.org/2000/svg">
<path opacity="0.4" d="M22 7.42999V13.43C22 14.93 21.5 16.18 20.62 17.06C19.75 17.93 18.5 18.43 17 18.43V20.56C17 21.36 16.11 21.84 15.45 21.4L11 18.43H8.88C8.96 18.13 9 17.82 9 17.5C9 16.48 8.61 15.54 7.97 14.83C7.25 14.01 6.18 13.5 5 13.5C3.88 13.5 2.86 13.96 2.13 14.71C2.04 14.31 2 13.88 2 13.43V7.42999C2 4.42999 4 2.42999 7 2.42999H17C20 2.42999 22 4.42999 22 7.42999Z" fill="#292D32"/>
<path d="M15.5 11.25H8.5C8.09 11.25 7.75 10.91 7.75 10.5C7.75 10.09 8.09 9.75 8.5 9.75H15.5C15.91 9.75 16.25 10.09 16.25 10.5C16.25 10.91 15.91 11.25 15.5 11.25Z" fill="#292D32"/>
<path d="M5 13.5C2.79 13.5 1 15.29 1 17.5C1 18.25 1.20999 18.96 1.57999 19.56C2.26999 20.72 3.54 21.5 5 21.5C6.46 21.5 7.73001 20.72 8.42001 19.56C8.79001 18.96 9 18.25 9 17.5C9 15.29 7.21 13.5 5 13.5ZM6.97 17.17L4.84 19.14C4.7 19.27 4.50999 19.34 4.32999 19.34C4.13999 19.34 3.94999 19.27 3.79999 19.12L2.81 18.13C2.52 17.84 2.52 17.36 2.81 17.07C3.1 16.78 3.58 16.78 3.87 17.07L4.35001 17.55L5.95001 16.07C6.25001 15.79 6.73001 15.81 7.01001 16.11C7.29001 16.41 7.27 16.89 6.97 17.17Z" fill="#292D32"/>
</svg>
