<svg width="24" height="24" viewBox="0 0 24 24" fill="none" xmlns="http://www.w3.org/2000/svg">
<path d="M14.43 16.92H12.14C11.73 16.92 11.39 16.58 11.39 16.17C11.39 15.76 11.73 15.42 12.14 15.42H14.43C14.86 15.42 15.21 15.0701 15.21 14.6401C15.21 14.2101 14.86 13.86 14.43 13.86H12.14C11.9 13.86 11.67 13.74 11.53 13.55C11.39 13.36 11.35 13.1001 11.43 12.8701L12.19 10.5801C12.29 10.2701 12.58 10.0701 12.9 10.0701H15.96C16.37 10.0701 16.71 10.4101 16.71 10.8201C16.71 11.2301 16.37 11.5701 15.96 11.5701H13.44L13.18 12.36H14.43C15.69 12.36 16.71 13.3801 16.71 14.6401C16.71 15.9001 15.68 16.92 14.43 16.92Z" fill="#292D32"/>
<path d="M9.53998 16.9201C9.12998 16.9201 8.78998 16.5801 8.78998 16.1701V12.7801L8.59997 13.0001C8.31997 13.3101 7.84998 13.3301 7.53998 13.0601C7.22998 12.7801 7.20998 12.3101 7.47998 12.0001L8.97998 10.3301C9.18998 10.1001 9.52 10.0201 9.81 10.1301C10.1 10.2401 10.29 10.5201 10.29 10.8301V16.1801C10.29 16.5901 9.95998 16.9201 9.53998 16.9201Z" fill="#292D32"/>
<path opacity="0.4" d="M12 3.47994C11.92 3.47994 11.84 3.48995 11.76 3.48995L12.58 2.46993C12.84 2.14993 12.79 1.66994 12.46 1.41994C12.13 1.16994 11.67 1.20994 11.41 1.53994L9.42999 4.00997C9.41999 4.01997 9.41997 4.03995 9.40997 4.04995C9.37997 4.08995 9.36003 4.13996 9.34003 4.18996C9.32003 4.22996 9.29998 4.26997 9.28998 4.31997C9.27998 4.36997 9.28003 4.40998 9.28003 4.45998C9.28003 4.50998 9.28003 4.55994 9.28003 4.60994C9.28003 4.62994 9.28003 4.63993 9.28003 4.65993C9.29003 4.68993 9.31001 4.71996 9.32001 4.74996C9.34001 4.79996 9.36 4.83997 9.38 4.88997C9.41001 4.92997 9.43998 4.96996 9.47998 4.99996C9.49998 5.01996 9.51998 5.04997 9.53998 5.07997C9.54998 5.08997 9.57002 5.08993 9.58002 5.09993C9.61002 5.11993 9.63998 5.12998 9.66998 5.14998C9.71998 5.17998 9.78002 5.19998 9.83002 5.20998C9.86002 5.21998 9.88999 5.21994 9.92999 5.22994C9.95999 5.22994 9.98001 5.23995 10.01 5.23995C10.04 5.23995 10.06 5.22993 10.08 5.21993C10.11 5.21993 10.14 5.22993 10.17 5.21993C10.81 5.06993 11.41 4.99996 11.98 4.99996C16.47 4.99996 20.12 8.64997 20.12 13.14C20.12 17.63 16.47 21.28 11.98 21.28C7.48998 21.28 3.84003 17.63 3.84003 13.14C3.84003 11.4 4.40999 9.71999 5.48999 8.27999C5.73999 7.94999 5.67003 7.47994 5.34003 7.22994C5.01003 6.97994 4.53998 7.04996 4.28998 7.37996C3.00998 9.07996 2.34003 11.07 2.34003 13.14C2.34003 18.45 6.65998 22.78 11.98 22.78C17.3 22.78 21.62 18.46 21.62 13.14C21.62 7.81997 17.31 3.47994 12 3.47994Z" fill="#292D32"/>
</svg>
