<svg width="24" height="24" viewBox="0 0 24 24" fill="none" xmlns="http://www.w3.org/2000/svg">
<path opacity="0.4" d="M19.1 20.2999C18.9 20.2999 18.7 20.2 18.6 20.1C18.3 19.8 18.3 19.2999 18.6 19C20.3 17.3 21.2 15 21.2 12.5C21.2 7.39995 17.1 3.29995 12 3.29995C6.89995 3.29995 2.79995 7.39995 2.79995 12.5C2.79995 14.9 3.69995 17.2 5.39995 19C5.69995 19.2999 5.69995 19.8 5.39995 20.1C5.09995 20.4 4.59995 20.4 4.29995 20.1C2.29995 18.1 1.19995 15.4 1.19995 12.6C1.19995 6.59995 6.09995 1.69995 12 1.69995C17.9 1.69995 22.7999 6.49995 22.7999 12.5C22.7999 15.3 21.7 18 19.7 20C19.5 20.2 19.3 20.2999 19.1 20.2999Z" fill="#292D32"/>
<path d="M12.0001 22C14.154 22 15.9001 20.2539 15.9001 18.1C15.9001 15.946 14.154 14.2 12.0001 14.2C9.84619 14.2 8.1001 15.946 8.1001 18.1C8.1001 20.2539 9.84619 22 12.0001 22Z" fill="#292D32"/>
<path d="M16 8.5C14.9 8.5 14 9.4 14 10.5V11.3C14 12 14.6 12.5 15.2 12.5H16C17.1 12.5 18 11.6 18 10.5C18 9.4 17.1 8.5 16 8.5Z" fill="#292D32"/>
</svg>
