<svg width="24" height="24" viewBox="0 0 24 24" fill="none" xmlns="http://www.w3.org/2000/svg">
<path d="M3.40991 11.02V14.56C3.40991 15.74 4.18991 17.29 5.13991 18L9.43991 21.21C10.1399 21.74 11.0699 22 11.9999 22" stroke="#292D32" stroke-width="1.5" stroke-linecap="round" stroke-linejoin="round"/>
<path d="M20.5899 10.5501V7.12006C20.5899 5.89006 19.6499 4.53006 18.4999 4.10006L13.5099 2.23006C12.6799 1.92006 11.3199 1.92006 10.4899 2.23006L5.49991 4.11006C4.34991 4.54006 3.40991 5.90006 3.40991 7.12006" stroke="#292D32" stroke-width="1.5" stroke-linecap="round" stroke-linejoin="round"/>
<path d="M20 16C20 18.21 18.21 20 16 20C13.79 20 12 18.21 12 16C12 15.27 12.19 14.59 12.53 14.01C13.22 12.81 14.51 12.01 15.99 12.01C16.6 12.01 17.17 12.15 17.69 12.39" stroke="#292D32" stroke-width="1.5" stroke-linecap="round" stroke-linejoin="round"/>
<path d="M20.9955 21H21.0045" stroke="#292D32" stroke-width="2" stroke-linecap="round" stroke-linejoin="round"/>
</svg>
