<svg width="24" height="24" viewBox="0 0 24 24" fill="none" xmlns="http://www.w3.org/2000/svg">
<path d="M9.86982 5.66998L6.44982 7.74999L4.88982 5.19C4.31982 4.25 4.61982 3.01 5.55982 2.44C6.49982 1.87 7.73982 2.16998 8.30982 3.10998L9.86982 5.66998Z" stroke="#292D32" stroke-width="1.5" stroke-linecap="round" stroke-linejoin="round"/>
<path d="M9.20011 20.4401C9.86011 21.7901 11.4601 22.26 12.7401 21.47L19.1701 17.5601C20.4601 16.7801 20.7701 15.1501 19.8801 13.9401L17.1101 10.2001C15.9101 8.59009 13.6501 8.04005 11.8201 9.16005L8.66012 11.0801C6.82012 12.2001 6.26011 14.4601 7.15011 16.2601" stroke="#292D32" stroke-width="1.5" stroke-linecap="round" stroke-linejoin="round"/>
<path d="M10.7564 5.09791L5.63184 8.21851L7.71224 11.6349L12.8368 8.51431L10.7564 5.09791Z" stroke="#292D32" stroke-width="1.5" stroke-linecap="round" stroke-linejoin="round"/>
<path d="M14.3101 16.8101L15.9601 19.5201" stroke="#292D32" stroke-width="1.5" stroke-linecap="round" stroke-linejoin="round"/>
<path d="M11.75 18.37L13.4 21.08" stroke="#292D32" stroke-width="1.5" stroke-linecap="round" stroke-linejoin="round"/>
<path d="M16.8701 15.25L18.5201 17.96" stroke="#292D32" stroke-width="1.5" stroke-linecap="round" stroke-linejoin="round"/>
</svg>
