<svg width="24" height="24" viewBox="0 0 24 24" fill="none" xmlns="http://www.w3.org/2000/svg">
<path opacity="0.4" d="M14.9999 22.75C14.7299 22.75 14.4799 22.6 14.3499 22.37C14.2199 22.14 14.2199 21.85 14.3599 21.62L15.4099 19.87C15.6199 19.51 16.0799 19.4 16.4399 19.61C16.7999 19.82 16.9099 20.28 16.6999 20.64L16.4299 21.09C19.1899 20.44 21.2599 17.96 21.2599 15C21.2599 14.59 21.5999 14.25 22.0099 14.25C22.4199 14.25 22.7599 14.59 22.7599 15C22.7499 19.27 19.2699 22.75 14.9999 22.75Z" fill="#292D32"/>
<path opacity="0.4" d="M2 9.75C1.59 9.75 1.25 9.41 1.25 9C1.25 4.73 4.73 1.25 9 1.25C9.27 1.25 9.51999 1.4 9.64999 1.63C9.77999 1.86 9.78 2.15 9.64 2.38L8.59 4.13C8.38 4.49001 7.92 4.60001 7.56 4.39001C7.2 4.18001 7.09 3.71999 7.3 3.35999L7.57001 2.90997C4.81001 3.55997 2.74001 6.04 2.74001 9C2.75001 9.41 2.41 9.75 2 9.75Z" fill="#292D32"/>
<path d="M10.67 13.8499L7.52995 12.1599C7.19995 11.9799 6.79996 11.9799 6.46996 12.1599L3.32996 13.8499C3.09996 13.9699 2.95996 14.2199 2.95996 14.4899C2.95996 14.7599 3.09996 15.0099 3.32996 15.1299L6.46996 16.8199C6.63996 16.9099 6.81995 16.9499 6.99995 16.9499C7.17995 16.9499 7.35995 16.9099 7.52995 16.8199L10.67 15.1299C10.9 15.0099 11.0399 14.7599 11.0399 14.4899C11.0399 14.2199 10.89 13.9799 10.67 13.8499Z" fill="#292D32"/>
<path d="M5.94998 17.4099L3.02998 15.9499C2.80998 15.8399 2.54999 15.8499 2.32999 15.9799C2.11999 16.1099 1.98999 16.3399 1.98999 16.5899V19.3499C1.98999 19.8299 2.24998 20.2599 2.67998 20.4699L5.59999 21.9299C5.69999 21.9799 5.80998 22.0099 5.91998 22.0099C6.04998 22.0099 6.17999 21.9699 6.29999 21.8999C6.50999 21.7699 6.63998 21.5399 6.63998 21.2899V18.5299C6.64998 18.0499 6.37998 17.6199 5.94998 17.4099Z" fill="#292D32"/>
<path d="M11.66 15.9799C11.45 15.8499 11.19 15.8399 10.96 15.9499L8.03996 17.4099C7.60996 17.6199 7.34998 18.0499 7.34998 18.5299V21.2899C7.34998 21.5399 7.47997 21.7699 7.68997 21.8999C7.80997 21.9699 7.93998 22.0099 8.06998 22.0099C8.17998 22.0099 8.28997 21.9799 8.38997 21.9299L11.31 20.4699C11.74 20.2599 12 19.8299 12 19.3499V16.5899C12 16.3399 11.87 16.1099 11.66 15.9799Z" fill="#292D32"/>
<path d="M20.67 3.83001L17.53 2.14C17.2 1.96 16.8 1.96 16.47 2.14L13.33 3.83001C13.1 3.95001 12.96 4.19996 12.96 4.46996C12.96 4.73996 13.1 4.98998 13.33 5.10998L16.47 6.79998C16.64 6.88998 16.82 6.92998 17 6.92998C17.18 6.92998 17.36 6.88998 17.53 6.79998L20.67 5.10998C20.9 4.98998 21.0399 4.73996 21.0399 4.46996C21.0399 4.18996 20.89 3.95001 20.67 3.83001Z" fill="#292D32"/>
<path d="M15.95 7.37999L13.03 5.91997C12.81 5.80997 12.55 5.82 12.33 5.95C12.12 6.08 11.99 6.30999 11.99 6.55999V9.32C11.99 9.8 12.25 10.23 12.68 10.44L15.6 11.9C15.7 11.95 15.81 11.98 15.92 11.98C16.05 11.98 16.18 11.94 16.3 11.87C16.51 11.74 16.64 11.51 16.64 11.26V8.49999C16.65 8.01999 16.38 7.58999 15.95 7.37999Z" fill="#292D32"/>
<path d="M21.66 5.95C21.45 5.82 21.19 5.80997 20.96 5.91997L18.04 7.37999C17.61 7.58999 17.35 8.01999 17.35 8.49999V11.26C17.35 11.51 17.48 11.74 17.69 11.87C17.81 11.94 17.94 11.98 18.07 11.98C18.18 11.98 18.29 11.95 18.39 11.9L21.31 10.44C21.74 10.23 22 9.8 22 9.32V6.55999C22 6.30999 21.87 6.08 21.66 5.95Z" fill="#292D32"/>
</svg>
