<svg width="24" height="24" viewBox="0 0 24 24" fill="none" xmlns="http://www.w3.org/2000/svg">
<path opacity="0.4" d="M10.4399 14.2999L11.0899 14.9499C11.2799 15.1399 11.5899 15.1399 11.7799 14.9599L13.5599 13.3199" stroke="#292D32" stroke-width="1.5" stroke-linecap="round" stroke-linejoin="round"/>
<path d="M8.00007 22H16.0001C20.0201 22 20.7401 20.39 20.9501 18.43L21.7001 10.43C21.9701 7.99 21.2701 6 17.0001 6H7.00007C2.73007 6 2.03007 7.99 2.30007 10.43L3.05007 18.43C3.26007 20.39 3.98007 22 8.00007 22Z" stroke="#292D32" stroke-width="1.5" stroke-miterlimit="10" stroke-linecap="round" stroke-linejoin="round"/>
<path opacity="0.4" d="M8 6V5.2C8 3.43 8 2 11.2 2H12.8C16 2 16 3.43 16 5.2V6" stroke="#292D32" stroke-width="1.5" stroke-miterlimit="10" stroke-linecap="round" stroke-linejoin="round"/>
<g opacity="0.4">
<path d="M12 18.2002C14.2091 18.2002 16 16.4093 16 14.2002C16 11.9911 14.2091 10.2002 12 10.2002C9.79086 10.2002 8 11.9911 8 14.2002C8 16.4093 9.79086 18.2002 12 18.2002Z" stroke="#292D32" stroke-width="1.5" stroke-miterlimit="10" stroke-linecap="round" stroke-linejoin="round"/>
<path d="M21.6498 11C19.9198 12.26 17.9998 13.14 16.0098 13.64" stroke="#292D32" stroke-width="1.5" stroke-miterlimit="10" stroke-linecap="round" stroke-linejoin="round"/>
<path d="M2.61914 11.2695C4.28914 12.4095 6.10914 13.2195 7.99914 13.6795" stroke="#292D32" stroke-width="1.5" stroke-miterlimit="10" stroke-linecap="round" stroke-linejoin="round"/>
</g>
</svg>
