<svg width="24" height="24" viewBox="0 0 24 24" fill="none" xmlns="http://www.w3.org/2000/svg">
<path opacity="0.4" d="M21.8499 11.41L21.2299 18.19C21.0199 20.19 20.1999 22.23 15.7999 22.23H8.1799C3.7799 22.23 2.9599 20.19 2.7599 18.2L2.1499 11.69C2.1599 11.7 2.1699 11.71 2.1899 11.72C2.5299 11.94 2.8599 12.16 3.2199 12.36C3.3599 12.45 3.5099 12.53 3.6599 12.61C4.7899 13.23 5.9999 13.72 7.2499 14.06C7.7499 14.21 8.2599 14.32 8.7799 14.41C8.9799 16.01 10.3499 17.25 11.9999 17.25C13.6699 17.25 15.0499 15.98 15.2299 14.35V14.34C15.7399 14.24 16.2499 14.11 16.7499 13.96C17.9999 13.57 19.2099 13.05 20.3399 12.39C20.3999 12.36 20.4499 12.33 20.4899 12.3C20.9499 12.05 21.3899 11.76 21.8099 11.46C21.8299 11.45 21.8399 11.43 21.8499 11.41Z" fill="#292D32"/>
<path d="M21.09 6.98002C20.24 6.04002 18.83 5.57002 16.76 5.57002H16.52V5.53002C16.52 3.85002 16.52 1.77002 12.76 1.77002H11.24C7.48004 1.77002 7.48004 3.85002 7.48004 5.53002V5.57002H7.24004C5.17004 5.57002 3.75004 6.04002 2.91004 6.98002C1.92004 8.09002 1.95004 9.56002 2.05004 10.57L2.06004 10.64L2.15004 11.69C2.16004 11.7 2.18004 11.71 2.20004 11.72C2.54004 11.94 2.87004 12.16 3.23004 12.36C3.37004 12.45 3.52004 12.53 3.67004 12.61C4.80004 13.23 6.01004 13.72 7.25004 14.06C7.28004 16.65 9.40004 18.75 12 18.75C14.62 18.75 16.75 16.62 16.75 14V13.96C18.01 13.58 19.22 13.05 20.35 12.39C20.41 12.36 20.45 12.33 20.5 12.3C20.96 12.05 21.4 11.76 21.82 11.46C21.83 11.45 21.85 11.43 21.86 11.41L21.9 11.05L21.95 10.58C21.96 10.52 21.96 10.47 21.97 10.4C22.05 9.40002 22.03 8.02002 21.09 6.98002ZM8.91004 5.53002C8.91004 3.83002 8.91004 3.19002 11.24 3.19002H12.76C15.09 3.19002 15.09 3.83002 15.09 5.53002V5.57002H8.91004V5.53002ZM12 17.25C10.35 17.25 8.98004 16.01 8.78004 14.41C8.76004 14.28 8.75004 14.14 8.75004 14C8.75004 12.21 10.21 10.75 12 10.75C13.79 10.75 15.25 12.21 15.25 14C15.25 14.12 15.24 14.23 15.23 14.34V14.35C15.05 15.98 13.67 17.25 12 17.25Z" fill="#292D32"/>
<path d="M11.4299 16.03C11.2399 16.03 11.0499 15.96 10.8999 15.81L9.90988 14.83C9.61988 14.54 9.61988 14.06 9.90988 13.77C10.1999 13.48 10.6799 13.48 10.9699 13.77L11.4499 14.25L13.0599 12.77C13.3599 12.49 13.8399 12.51 14.1199 12.81C14.3999 13.11 14.3799 13.59 14.0799 13.87L11.9499 15.84C11.7899 15.96 11.6099 16.03 11.4299 16.03Z" fill="#292D32"/>
</svg>
