<svg width="24" height="24" viewBox="0 0 24 24" fill="none" xmlns="http://www.w3.org/2000/svg">
<path d="M16 9C16 12.87 12.87 16 9 16C8.68 16 8.37 15.98 8.07 15.93C4.64 15.48 2 12.55 2 9C2 5.13 5.13 2 9 2C12.55 2 15.48 4.64 15.93 8.07C15.98 8.37 16 8.68 16 9Z" stroke="#292D32" stroke-width="1.5" stroke-linecap="round" stroke-linejoin="round"/>
<path opacity="0.4" d="M22.0001 15C22.0001 18.87 18.8701 22 15.0001 22C11.4501 22 8.52007 19.36 8.07007 15.93C8.37007 15.98 8.68007 16 9.00007 16C12.8701 16 16.0001 12.87 16.0001 9.00001C16.0001 8.68001 15.9801 8.37001 15.9301 8.07001C19.3601 8.52001 22.0001 11.45 22.0001 15Z" stroke="#292D32" stroke-width="1.5" stroke-linecap="round" stroke-linejoin="round"/>
<path opacity="0.4" d="M14.1499 14.12L15.4599 15.41" stroke="#292D32" stroke-width="1.5" stroke-linecap="round" stroke-linejoin="round"/>
<path opacity="0.4" d="M17 12L16 11" stroke="#292D32" stroke-width="1.5" stroke-linecap="round" stroke-linejoin="round"/>
<path opacity="0.4" d="M12 17L11 16" stroke="#292D32" stroke-width="1.5" stroke-linecap="round" stroke-linejoin="round"/>
</svg>
