<svg width="24" height="24" viewBox="0 0 24 24" fill="none" xmlns="http://www.w3.org/2000/svg">
<path opacity="0.4" d="M20.27 17.19C19.27 18.1 17.98 18.6 16.63 18.59H16.54C16.84 17.97 17 17.27 17 16.53C17 13.77 14.76 11.53 12 11.53C9.23999 11.53 6.99999 13.77 6.99999 16.53C6.99999 17.27 7.16001 17.97 7.46001 18.59H5.53997C0.859968 18.26 0.859968 11.45 5.53997 11.12H5.59002C2.38002 2.19 15.92 -1.38 17.47 8C21.8 8.55 23.55 14.32 20.27 17.19Z" fill="#292D32"/>
<path d="M12 11.53C9.24 11.53 7 13.77 7 16.53C7 17.27 7.16002 17.97 7.46002 18.59C7.54002 18.77 7.62998 18.94 7.72998 19.1C8.58998 20.55 10.18 21.53 12 21.53C13.82 21.53 15.41 20.55 16.27 19.1C16.37 18.94 16.46 18.77 16.54 18.59C16.84 17.97 17 17.27 17 16.53C17 13.77 14.76 11.53 12 11.53ZM14.07 16.1L11.94 18.07C11.8 18.2 11.61 18.27 11.43 18.27C11.24 18.27 11.05 18.2 10.9 18.05L9.90997 17.06C9.61997 16.77 9.61997 16.29 9.90997 16C10.2 15.71 10.68 15.71 10.97 16L11.45 16.48L13.05 15C13.36 14.72 13.83 14.74 14.11 15.04C14.39 15.34 14.37 15.81 14.07 16.1Z" fill="#292D32"/>
</svg>
