<svg width="24" height="24" viewBox="0 0 24 24" fill="none" xmlns="http://www.w3.org/2000/svg">
<path opacity="0.4" d="M16.19 2.32996H7.82001C4.18001 2.32996 2.01001 4.49996 2.01001 8.13996V16.51C2.01001 20.15 4.18001 22.32 7.82001 22.32H16.19C19.83 22.32 22 20.15 22 16.51V8.14996C22 4.50996 19.83 2.32996 16.19 2.32996Z" fill="#292D32"/>
<path d="M16.3999 8.20996L12.6399 6.17996C12.2399 5.96996 11.7699 5.96996 11.3699 6.17996L7.60989 8.20996C7.33989 8.35996 7.16992 8.64996 7.16992 8.97996C7.16992 9.30996 7.33989 9.59996 7.60989 9.74996L11.3699 11.78C11.5699 11.89 11.7899 11.94 12.0099 11.94C12.2299 11.94 12.4499 11.89 12.6499 11.78L16.4099 9.74996C16.6799 9.59996 16.8499 9.30996 16.8499 8.97996C16.8399 8.64996 16.6699 8.35996 16.3999 8.20996Z" fill="#292D32"/>
<path d="M10.74 12.4701L7.23999 10.7201C6.96999 10.5901 6.65999 10.6001 6.39999 10.7601C6.13999 10.9201 5.98999 11.1901 5.98999 11.4901V14.8001C5.98999 15.3701 6.31001 15.8901 6.82001 16.1401L10.32 17.8901C10.44 17.9501 10.57 17.9801 10.71 17.9801C10.87 17.9801 11.02 17.9401 11.16 17.8501C11.42 17.6901 11.57 17.4201 11.57 17.1201V13.8101C11.57 13.2401 11.26 12.7301 10.74 12.4701Z" fill="#292D32"/>
<path d="M17.5899 10.7601C17.3299 10.6001 17.0199 10.5901 16.7499 10.7201L13.2499 12.4701C12.7399 12.7301 12.4199 13.2401 12.4199 13.8101V17.1201C12.4199 17.4201 12.5699 17.6901 12.8299 17.8501C12.9699 17.9401 13.1199 17.9801 13.2799 17.9801C13.4099 17.9801 13.5399 17.9501 13.6699 17.8901L17.1699 16.1401C17.6799 15.8801 17.9999 15.3701 17.9999 14.8001V11.4901C17.9999 11.1901 17.8499 10.9201 17.5899 10.7601Z" fill="#292D32"/>
</svg>
