<svg width="24" height="24" viewBox="0 0 24 24" fill="none" xmlns="http://www.w3.org/2000/svg">
<path opacity="0.4" d="M8.5 12.75C8.09 12.75 7.75 12.41 7.75 12V6C7.75 5.59 8.09 5.25 8.5 5.25C8.91 5.25 9.25 5.59 9.25 6V12C9.25 12.41 8.91 12.75 8.5 12.75Z" fill="#292D32"/>
<path opacity="0.4" d="M8.5 22.75C8.09 22.75 7.75 22.41 7.75 22V18C7.75 17.59 8.09 17.25 8.5 17.25C8.91 17.25 9.25 17.59 9.25 18V22C9.25 22.41 8.91 22.75 8.5 22.75Z" fill="#292D32"/>
<path d="M15.5 22.75C15.09 22.75 14.75 22.41 14.75 22V6C14.75 5.59 15.09 5.25 15.5 5.25C15.91 5.25 16.25 5.59 16.25 6V22C16.25 22.41 15.91 22.75 15.5 22.75Z" fill="#292D32"/>
<path d="M10.1 5.29999C10.1 5.78999 9.90001 6.25001 9.57001 6.57001C9.25001 6.90001 8.79999 7.09998 8.29999 7.09998H6.04999C6.32999 6.72998 6.5 6.25 6.5 5.75V4.84998C6.5 4.34998 6.32999 3.87 6.04999 3.5H8.29999C9.28999 3.5 10.1 4.30999 10.1 5.29999Z" fill="#292D32"/>
<path d="M6.5 4.84996V5.74999C6.5 6.24999 6.32999 6.72996 6.04999 7.09996C5.28999 8.10996 3.73 8.44996 2.28 7.15996C2.12 7.01996 2 6.71999 2 6.49999V4.15996C2 3.96996 2.10001 3.68997 2.23001 3.54997C3.49001 2.22997 5.01 2.41999 5.84 3.24999C5.91 3.31999 5.97999 3.39998 6.04999 3.48998C6.32999 3.86998 6.5 4.34996 6.5 4.84996Z" fill="#292D32"/>
<path d="M13.9 5.29999C13.9 5.78999 14.1 6.25001 14.43 6.57001C14.75 6.90001 15.2 7.09998 15.7 7.09998H17.95C17.67 6.72998 17.5 6.25 17.5 5.75V4.84998C17.5 4.34998 17.67 3.87 17.95 3.5H15.7C14.71 3.5 13.9 4.30999 13.9 5.29999Z" fill="#292D32"/>
<path d="M17.5 4.84996V5.74999C17.5 6.24999 17.67 6.72996 17.95 7.09996C18.71 8.10996 20.27 8.44996 21.72 7.15996C21.88 7.01996 22 6.71999 22 6.49999V4.15996C22 3.96996 21.9 3.68997 21.77 3.54997C20.51 2.22997 18.99 2.41999 18.16 3.24999C18.09 3.31999 18.02 3.39998 17.95 3.48998C17.67 3.86998 17.5 4.34996 17.5 4.84996Z" fill="#292D32"/>
<path d="M10 13.5V17.5C10 18.33 9.33 19 8.5 19C7.67 19 7 18.33 7 17.5V13.5C7 12.67 7.67 12 8.5 12C9.33 12 10 12.67 10 13.5Z" fill="#292D32"/>
</svg>
