<svg width="24" height="24" viewBox="0 0 24 24" fill="none" xmlns="http://www.w3.org/2000/svg">
<path opacity="0.4" d="M16.19 2H7.82001C4.18001 2 2.01001 4.17 2.01001 7.81V16.18C2.01001 19.82 4.18001 21.99 7.82001 21.99H16.19C19.83 21.99 22 19.82 22 16.18V7.81C22 4.17 19.83 2 16.19 2Z" fill="#292D32"/>
<path d="M12.71 19.03C12.48 19.03 12.3 18.97 12.2 18.92C11.97 18.81 11.43 18.45 11.43 17.47V14.05L8.51002 16.73C8.21002 17.01 7.73002 16.99 7.45002 16.68C7.17002 16.37 7.19001 15.9 7.50001 15.62L11.43 12.02V11.94L7.50001 8.38002C7.19001 8.10002 7.17002 7.63002 7.45002 7.32002C7.73002 7.02002 8.21002 6.99002 8.51002 7.27002L11.43 9.95001V6.53001C11.43 5.55001 11.97 5.19002 12.2 5.08002C12.43 4.97002 13.05 4.79001 13.8 5.42001L16.22 7.44002C16.55 7.71002 16.74 8.11002 16.75 8.52002C16.76 8.93002 16.59 9.33001 16.27 9.62001L13.66 12.01L16.27 14.4C16.58 14.69 16.76 15.09 16.75 15.5C16.74 15.91 16.55 16.3 16.22 16.58L13.8 18.6C13.38 18.94 13 19.03 12.71 19.03ZM12.93 13.3V17.36L15.26 15.41L12.93 13.3ZM12.93 6.64001V10.64L15.26 8.50001L12.93 6.64001Z" fill="#292D32"/>
</svg>
