<svg width="24" height="24" viewBox="0 0 24 24" fill="none" xmlns="http://www.w3.org/2000/svg">
<path opacity="0.4" d="M12 22C17.5228 22 22 17.5228 22 12C22 6.47715 17.5228 2 12 2C6.47715 2 2 6.47715 2 12C2 17.5228 6.47715 22 12 22Z" fill="#292D32"/>
<path d="M16.7601 11.93C16.3401 11.86 15.9701 12.16 15.9101 12.57C15.7901 13.44 15.4 14.22 14.8 14.82C13.42 16.2 11.2801 16.34 9.73007 15.27H10.4801C10.8901 15.27 11.2301 14.93 11.2301 14.52C11.2301 14.11 10.8901 13.77 10.4801 13.77H7.81006C7.40006 13.77 7.06006 14.11 7.06006 14.52V17.19C7.06006 17.6 7.40006 17.94 7.81006 17.94C8.22006 17.94 8.56006 17.6 8.56006 17.19V16.25C9.56006 17.06 10.7701 17.49 11.9901 17.49C13.3901 17.49 14.79 16.96 15.86 15.89C16.69 15.06 17.2201 13.9899 17.3901 12.7899C17.4601 12.3599 17.1701 11.98 16.7601 11.93Z" fill="#292D32"/>
<path d="M7.33993 12.08C7.70993 12.08 8.02992 11.81 8.07992 11.44C8.19992 10.57 8.58993 9.79 9.18993 9.19C10.5699 7.81 12.7099 7.66999 14.2599 8.73999H13.5099C13.0999 8.73999 12.7599 9.07999 12.7599 9.48999C12.7599 9.89999 13.0999 10.24 13.5099 10.24H16.1799C16.5899 10.24 16.9299 9.89999 16.9299 9.48999V6.82001C16.9299 6.41001 16.5899 6.07001 16.1799 6.07001C15.7699 6.07001 15.4299 6.41001 15.4299 6.82001V7.76001C13.2799 6.02001 10.1299 6.13 8.13995 8.12C7.30995 8.95 6.77992 10.02 6.60992 11.22C6.54992 11.63 6.83993 12.01 7.24993 12.07C7.26993 12.08 7.30993 12.08 7.33993 12.08Z" fill="#292D32"/>
</svg>
