<svg width="24" height="24" viewBox="0 0 24 24" fill="none" xmlns="http://www.w3.org/2000/svg">
<path d="M15 22.75H9C3.57 22.75 1.25 20.43 1.25 15V9C1.25 3.57 3.57 1.25 9 1.25H15C20.43 1.25 22.75 3.57 22.75 9V13C22.75 13.41 22.41 13.75 22 13.75C21.59 13.75 21.25 13.41 21.25 13V9C21.25 4.39 19.61 2.75 15 2.75H9C4.39 2.75 2.75 4.39 2.75 9V15C2.75 19.61 4.39 21.25 9 21.25H15C15.41 21.25 15.75 21.59 15.75 22C15.75 22.41 15.41 22.75 15 22.75Z" fill="#292D32"/>
<path d="M18.9999 22.75C18.5899 22.75 18.2499 22.41 18.2499 22V17.81L17.5299 18.53C17.2399 18.82 16.7599 18.82 16.4699 18.53C16.1799 18.24 16.1799 17.76 16.4699 17.47L18.4699 15.47C18.6799 15.26 19.0099 15.19 19.2899 15.31C19.5699 15.43 19.7499 15.7 19.7499 16V22C19.7499 22.41 19.4099 22.75 18.9999 22.75Z" fill="#292D32"/>
<path d="M20.9999 18.75C20.8099 18.75 20.6199 18.68 20.4699 18.53L18.4699 16.53C18.1799 16.24 18.1799 15.76 18.4699 15.47C18.7599 15.18 19.2399 15.18 19.5299 15.47L21.5299 17.47C21.8199 17.76 21.8199 18.24 21.5299 18.53C21.3799 18.68 21.1899 18.75 20.9999 18.75Z" fill="#292D32"/>
<path d="M8.90023 16.49C8.87023 16.49 8.84023 16.49 8.82023 16.49C8.41023 16.44 8.11023 16.07 8.16023 15.66L9.20023 6.18C9.25023 5.77 9.62023 5.47 10.0302 5.52C10.4402 5.57 10.7402 5.94 10.6902 6.35L9.64023 15.82C9.60023 16.2 9.27023 16.49 8.90023 16.49Z" fill="#292D32"/>
<path d="M12.0501 16.49C12.0201 16.49 11.9901 16.49 11.9701 16.49C11.5601 16.44 11.2601 16.07 11.3101 15.66L12.3601 6.19001C12.4101 5.78001 12.7801 5.48001 13.1901 5.53001C13.6001 5.58001 13.9001 5.95001 13.8501 6.36001L12.8001 15.83C12.7601 16.2 12.4301 16.49 12.0501 16.49Z" fill="#292D32"/>
<path d="M15.9998 10.17H6.52979C6.11979 10.17 5.77979 9.83001 5.77979 9.42001C5.77979 9.01001 6.11979 8.67001 6.52979 8.67001H15.9998C16.4098 8.67001 16.7498 9.01001 16.7498 9.42001C16.7498 9.83001 16.4098 10.17 15.9998 10.17Z" fill="#292D32"/>
<path d="M15.47 13.33H6C5.59 13.33 5.25 12.99 5.25 12.58C5.25 12.17 5.59 11.83 6 11.83H15.47C15.88 11.83 16.22 12.17 16.22 12.58C16.22 12.99 15.89 13.33 15.47 13.33Z" fill="#292D32"/>
</svg>
