<svg width="24" height="24" viewBox="0 0 24 24" fill="none" xmlns="http://www.w3.org/2000/svg">
<path opacity="0.4" d="M16.19 2H7.82002C4.18002 2 2.01001 4.17 2.01001 7.81V16.18C2.01001 19.82 4.18002 21.99 7.82002 21.99H16.19C19.83 21.99 22 19.82 22 16.18V7.81C22 4.17 19.83 2 16.19 2Z" fill="#292D32"/>
<path d="M9.16997 14.09C9.35997 14.09 9.54997 14.02 9.69997 13.87L14.08 9.48998V11.92C14.08 12.33 14.42 12.67 14.83 12.67C15.24 12.67 15.58 12.33 15.58 11.92V7.67999C15.58 7.57999 15.56 7.48998 15.52 7.38998C15.44 7.20998 15.3 7.05999 15.11 6.97999C15.02 6.93999 14.92 6.91998 14.82 6.91998H10.58C10.17 6.91998 9.82997 7.25998 9.82997 7.66998C9.82997 8.07998 10.17 8.41998 10.58 8.41998H13.01L8.62998 12.8C8.33998 13.09 8.33998 13.57 8.62998 13.86C8.78998 14.02 8.97997 14.09 9.16997 14.09Z" fill="#292D32"/>
<path d="M18.7099 16.28C18.5799 15.89 18.1599 15.68 17.7599 15.81C14.0399 17.05 9.94993 17.05 6.22993 15.81C5.83993 15.68 5.40994 15.89 5.27994 16.28C5.14994 16.67 5.35994 17.1 5.74994 17.23C7.75994 17.9 9.86994 18.24 11.9899 18.24C14.1099 18.24 16.2199 17.9 18.2299 17.23C18.6299 17.09 18.8399 16.67 18.7099 16.28Z" fill="#292D32"/>
</svg>
