<svg width="24" height="24" viewBox="0 0 24 24" fill="none" xmlns="http://www.w3.org/2000/svg">
<path d="M20.0201 10.7L17.2201 12.47L11.5601 6.81L13.3201 4.01C14.1401 2.72 15.7801 2.66 16.9901 3.86L20.1701 7.04C21.3001 8.17 21.2301 9.93 20.0201 10.7Z" fill="#292D32"/>
<path opacity="0.4" d="M14.7101 19.95L6.00006 20.98C5.40006 21.05 4.86006 20.96 4.41006 20.74C3.92006 20.5 3.54006 20.12 3.30006 19.63C3.08006 19.18 3.00006 18.64 3.06006 18.05L4.10006 9.33C4.35006 7.15 5.16006 6.44 7.46006 6.57L11.5801 6.82L17.2401 12.48L17.4801 16.6C17.6901 18.9 16.9001 19.7 14.7101 19.95Z" fill="#292D32"/>
<path d="M7.98004 17.15L4.40004 20.73C3.91004 20.49 3.53004 20.11 3.29004 19.62L6.88004 16.03C7.19004 15.73 7.69004 15.73 7.99004 16.03C8.30004 16.35 8.30004 16.84 7.98004 17.15Z" fill="#292D32"/>
</svg>
