<svg width="24" height="24" viewBox="0 0 24 24" fill="none" xmlns="http://www.w3.org/2000/svg">
<path d="M17.03 19.75H15.99C13.98 19.75 13.01 18.82 13.01 16.9V5.10001C13.01 4.69001 13.35 4.35001 13.76 4.35001C14.17 4.35001 14.51 4.69001 14.51 5.10001V16.9C14.51 17.91 14.72 18.25 15.99 18.25H17.03C18.3 18.25 18.51 17.91 18.51 16.9V5.10001C18.51 4.69001 18.85 4.35001 19.26 4.35001C19.67 4.35001 20.01 4.69001 20.01 5.10001V16.9C20.01 18.82 19.04 19.75 17.03 19.75Z" fill="#292D32"/>
<path d="M8.53001 14.75H7.49001C5.48001 14.75 4.51001 13.82 4.51001 11.9V5.10001C4.51001 4.69001 4.85001 4.35001 5.26001 4.35001C5.67001 4.35001 6.01001 4.69001 6.01001 5.10001V11.9C6.01001 12.91 6.22001 13.25 7.49001 13.25H8.53001C9.80001 13.25 10.01 12.91 10.01 11.9V5.10001C10.01 4.69001 10.35 4.35001 10.76 4.35001C11.17 4.35001 11.51 4.69001 11.51 5.10001V11.9C11.51 13.82 10.54 14.75 8.53001 14.75Z" fill="#292D32"/>
<path d="M22 5.75H2C1.58 5.75 1.25 5.41 1.25 5C1.25 4.59 1.58 4.25 2 4.25H22C22.41 4.25 22.75 4.59 22.75 5C22.75 5.41 22.42 5.75 22 5.75Z" fill="#292D32"/>
</svg>
