<svg width="24" height="24" viewBox="0 0 24 24" fill="none" xmlns="http://www.w3.org/2000/svg">
<path opacity="0.4" d="M21 7V17C21 20 19.5 22 16 22H8C4.5 22 3 20 3 17V7C3 4 4.5 2 8 2H16C19.5 2 21 4 21 7Z" fill="#292D32"/>
<path d="M18.5 9.25H16.5C14.98 9.25 13.75 8.02 13.75 6.5V4.5C13.75 4.09 14.09 3.75 14.5 3.75C14.91 3.75 15.25 4.09 15.25 4.5V6.5C15.25 7.19 15.81 7.75 16.5 7.75H18.5C18.91 7.75 19.25 8.09 19.25 8.5C19.25 8.91 18.91 9.25 18.5 9.25Z" fill="#292D32"/>
<path d="M7.48014 15.49C7.15014 14.46 7.54011 13.19 8.61011 12.84C9.18011 12.66 9.88012 12.81 10.2701 13.36C10.6401 12.79 11.3701 12.66 11.9301 12.84C13.0101 13.19 13.3901 14.46 13.0701 15.49C12.5601 17.12 10.7701 17.9699 10.2701 17.9699C9.78012 17.9599 8.01014 17.13 7.48014 15.49Z" fill="#292D32"/>
</svg>
