<svg width="24" height="24" viewBox="0 0 24 24" fill="none" xmlns="http://www.w3.org/2000/svg">
<path opacity="0.4" d="M12 22C17.5228 22 22 17.5228 22 12C22 6.47715 17.5228 2 12 2C6.47715 2 2 6.47715 2 12C2 17.5228 6.47715 22 12 22Z" fill="#292D32"/>
<path d="M17.3901 9.25986L14.3501 6.21988C14.2801 6.14988 14.2 6.09988 14.11 6.05988C13.93 5.97988 13.7201 5.97988 13.5401 6.05988C13.3601 6.13988 13.2101 6.27988 13.1301 6.46988C13.0901 6.55988 13.0701 6.65986 13.0701 6.75986V17.0699C13.0701 17.4799 13.4101 17.8199 13.8201 17.8199C14.2301 17.8199 14.5701 17.4799 14.5701 17.0699V8.56989L16.33 10.3299C16.48 10.4799 16.67 10.5499 16.86 10.5499C17.05 10.5499 17.2401 10.4799 17.3901 10.3299C17.6801 10.0199 17.6801 9.54986 17.3901 9.25986Z" fill="#292D32"/>
<path d="M10.9301 6.74988C10.9301 6.33988 10.5901 5.99988 10.1801 5.99988C9.77009 5.99988 9.43009 6.33988 9.43009 6.74988V15.2499L7.67011 13.4899C7.38011 13.1999 6.90008 13.1999 6.61008 13.4899C6.32008 13.7799 6.32008 14.2599 6.61008 14.5499L9.65009 17.5899C9.72009 17.6599 9.80011 17.7099 9.89011 17.7499C9.98011 17.7899 10.0801 17.8099 10.1801 17.8099C10.2801 17.8099 10.3701 17.7899 10.4701 17.7499C10.6501 17.6699 10.8001 17.5299 10.8801 17.3399C10.9201 17.2499 10.9401 17.1499 10.9401 17.0499V6.74988H10.9301Z" fill="#292D32"/>
</svg>
