<svg width="24" height="24" viewBox="0 0 24 24" fill="none" xmlns="http://www.w3.org/2000/svg">
<path opacity="0.4" d="M8.56004 3.33997V17.67C8.22004 17.68 7.88004 17.76 7.63004 17.91L5.28004 19.25C3.64004 20.19 2.29004 19.41 2.29004 17.51V7.77997C2.29004 7.14997 2.74004 6.36997 3.30004 6.04997L7.63004 3.56997C7.88004 3.42997 8.22004 3.34997 8.56004 3.33997Z" fill="#292D32"/>
<path d="M15.7301 6.33006V20.6601C15.3801 20.6701 15.0401 20.6101 14.7701 20.4801L9.52006 17.8501C9.25006 17.7201 8.91006 17.6601 8.56006 17.6701V3.34006C8.91006 3.33006 9.25006 3.39006 9.52006 3.52006L14.7701 6.15006C15.0401 6.28006 15.3801 6.34006 15.7301 6.33006Z" fill="#292D32"/>
<path opacity="0.4" d="M22 6.48994V16.2199C22 16.8499 21.55 17.6299 20.99 17.9499L16.66 20.4299C16.41 20.5699 16.07 20.6499 15.73 20.6599V6.32994C16.07 6.31994 16.41 6.23994 16.66 6.08994L19.01 4.74994C20.65 3.80994 22 4.58994 22 6.48994Z" fill="#292D32"/>
</svg>
