<svg width="24" height="24" viewBox="0 0 24 24" fill="none" xmlns="http://www.w3.org/2000/svg">
<path d="M12.52 1.5H11.52C10.69 1.5 10.02 2.17 10.02 3V4C10.02 4.83 10.69 5.5 11.52 5.5H12.52C13.35 5.5 14.02 4.83 14.02 4V3C14.02 2.17 13.35 1.5 12.52 1.5Z" fill="#292D32"/>
<path d="M4.27002 10.67H3.27002C2.44002 10.67 1.77002 11.34 1.77002 12.17V13.17C1.77002 14 2.44002 14.67 3.27002 14.67H4.27002C5.10002 14.67 5.77002 14 5.77002 13.17V12.17C5.77002 11.34 5.09002 10.67 4.27002 10.67Z" fill="#292D32"/>
<path d="M20.73 10.67H19.73C18.9 10.67 18.23 11.34 18.23 12.17V13.17C18.23 14 18.9 14.67 19.73 14.67H20.73C21.56 14.67 22.23 14 22.23 13.17V12.17C22.23 11.34 21.56 10.67 20.73 10.67Z" fill="#292D32"/>
<path d="M3.75 11.92C3.34 11.92 3 11.58 3 11.17C3 6.90001 6.2 3.31002 10.44 2.81002C10.84 2.77002 11.22 3.05999 11.27 3.46999C11.32 3.87999 11.02 4.25001 10.61 4.30001C7.13 4.71001 4.5 7.66001 4.5 11.17C4.5 11.58 4.16 11.92 3.75 11.92Z" fill="#292D32"/>
<path d="M20.25 11.92C19.84 11.92 19.5 11.58 19.5 11.17C19.5 7.67997 16.89 4.72999 13.43 4.30999C13.02 4.25999 12.73 3.88997 12.78 3.47997C12.83 3.06997 13.21 2.78001 13.62 2.83001C17.83 3.34001 21.01 6.92998 21.01 11.18C21 11.58 20.67 11.92 20.25 11.92Z" fill="#292D32"/>
<path d="M13.2901 22.01H10.7201C9.80007 22.01 9.12006 21.27 9.29006 20.47L9.71007 18.62H14.3001L14.7201 20.47C14.9101 21.32 14.2701 22.01 13.2901 22.01Z" fill="#292D32"/>
<path opacity="0.4" d="M16.0701 17.05L14.3001 18.62H9.71006L7.94005 17.05C6.91005 16.21 6.91005 15.56 7.69005 14.57L10.81 10.63C11.03 10.36 11.2801 10.17 11.5501 10.08C11.8401 9.98 12.16 9.98 12.45 10.08C12.72 10.18 12.9701 10.36 13.1901 10.63L16.31 14.57C17.09 15.56 17.0601 16.18 16.0701 17.05Z" fill="#292D32"/>
</svg>
