<svg width="24" height="24" viewBox="0 0 24 24" fill="none" xmlns="http://www.w3.org/2000/svg">
<path d="M9.89014 14.82L11.3401 15.94C11.5301 16.13 11.9501 16.22 12.2301 16.22H14.0001C14.5601 16.22 15.1701 15.8 15.3101 15.24L16.4301 11.82C16.6601 11.17 16.2401 10.6 15.5401 10.6H13.6701C13.3901 10.6 13.1601 10.3701 13.2001 10.0401L13.4301 8.54008C13.5201 8.12008 13.2401 7.65005 12.8201 7.51005C12.4501 7.37005 11.9801 7.56 11.7901 7.84L9.87012 10.69" stroke="#292D32" stroke-width="1.5" stroke-miterlimit="10"/>
<path d="M7.5 14.8201V10.2401C7.5 9.58011 7.78 9.3501 8.44 9.3501H8.91C9.56 9.3501 9.85001 9.58011 9.85001 10.2401V14.8201C9.85001 15.4701 9.57 15.7101 8.91 15.7101H8.44C7.78 15.7101 7.5 15.4801 7.5 14.8201Z" stroke="#292D32" stroke-width="1.5" stroke-linecap="round" stroke-linejoin="round"/>
<path d="M14.6599 20.01L13.1399 21.53C12.5199 22.15 11.4999 22.15 10.8799 21.53L9.3599 20.01C9.0999 19.75 8.58992 19.54 8.22992 19.54H6.0799C5.1999 19.54 4.47992 18.8199 4.47992 17.9399V15.79C4.47992 15.43 4.26992 14.92 4.00992 14.66L2.4899 13.14C1.8699 12.52 1.8699 11.5 2.4899 10.88L4.00992 9.35999C4.26992 9.09999 4.47992 8.58998 4.47992 8.22998V6.07996C4.47992 5.19996 5.1999 4.47998 6.0799 4.47998" stroke="#292D32" stroke-width="1.5" stroke-linecap="round" stroke-linejoin="round"/>
<path d="M9.34009 3.9899L10.8601 2.46988C11.4801 1.84988 12.5001 1.84988 13.1201 2.46988L14.6401 3.9899C14.9001 4.2499 15.4101 4.45987 15.7701 4.45987H17.9201C18.8001 4.45987 19.5201 5.17997 19.5201 6.05997V8.20987C19.5201 8.56987 19.7301 9.07988 19.9901 9.33988L21.5101 10.8599C22.1301 11.4799 22.1301 12.4999 21.5101 13.1199L19.9901 14.6399C19.7301 14.8999 19.5201 15.4099 19.5201 15.7699V17.92C19.5201 18.8 18.8001 19.5199 17.9201 19.5199" stroke="#292D32" stroke-width="1.5" stroke-linecap="round" stroke-linejoin="round"/>
</svg>
