<svg width="24" height="24" viewBox="0 0 24 24" fill="none" xmlns="http://www.w3.org/2000/svg">
<path opacity="0.4" d="M12 22C17.5228 22 22 17.5228 22 12C22 6.47715 17.5228 2 12 2C6.47715 2 2 6.47715 2 12C2 17.5228 6.47715 22 12 22Z" fill="#292D32"/>
<path d="M12.2 17.38C11.5 17.38 10.79 17.11 10.26 16.58C9.74001 16.06 9.45001 15.37 9.45001 14.64C9.45001 13.91 9.74001 13.21 10.26 12.7L11.67 11.29C11.96 11 12.44 11 12.73 11.29C13.02 11.58 13.02 12.06 12.73 12.35L11.32 13.76C11.08 14 10.95 14.31 10.95 14.64C10.95 14.97 11.08 15.29 11.32 15.52C11.81 16.01 12.6 16.01 13.09 15.52L15.31 13.3C16.58 12.03 16.58 9.97 15.31 8.7C14.04 7.43 11.98 7.43 10.71 8.7L8.28998 11.12C7.77998 11.63 7.5 12.3 7.5 13.01C7.5 13.72 7.77998 14.4 8.28998 14.9C8.57998 15.19 8.57998 15.67 8.28998 15.96C7.99998 16.25 7.51998 16.25 7.22998 15.96C6.43998 15.17 6.01001 14.12 6.01001 13C6.01001 11.88 6.43998 10.83 7.22998 10.04L9.65002 7.61998C11.5 5.76998 14.52 5.76998 16.37 7.61998C18.22 9.46998 18.22 12.49 16.37 14.34L14.15 16.56C13.61 17.11 12.91 17.38 12.2 17.38Z" fill="#292D32"/>
</svg>
