<svg width="24" height="24" viewBox="0 0 24 24" fill="none" xmlns="http://www.w3.org/2000/svg">
<path d="M11.5 21.75C5.85 21.75 1.25 17.15 1.25 11.5C1.25 5.85 5.85 1.25 11.5 1.25C11.91 1.25 12.25 1.59 12.25 2C12.25 2.41 11.91 2.75 11.5 2.75C6.67 2.75 2.75 6.68 2.75 11.5C2.75 16.32 6.67 20.25 11.5 20.25C16.33 20.25 20.25 16.32 20.25 11.5C20.25 11.09 20.59 10.75 21 10.75C21.41 10.75 21.75 11.09 21.75 11.5C21.75 17.15 17.15 21.75 11.5 21.75Z" fill="#292D32"/>
<path d="M22 22.7499C21.81 22.7499 21.62 22.6799 21.47 22.5299L19.47 20.5299C19.18 20.2399 19.18 19.7599 19.47 19.4699C19.76 19.1799 20.24 19.1799 20.53 19.4699L22.53 21.4699C22.82 21.7599 22.82 22.2399 22.53 22.5299C22.38 22.6799 22.19 22.7499 22 22.7499Z" fill="#292D32"/>
<path d="M17.5 9.53994C16.58 9.53994 14.44 8.41994 13.78 6.35994C13.33 4.94994 13.85 3.09994 15.48 2.56994C16.18 2.33994 16.91 2.44994 17.49 2.81994C18.06 2.44994 18.81 2.34994 19.51 2.56994C21.14 3.09994 21.67 4.94994 21.21 6.35994C20.56 8.45994 18.31 9.53994 17.5 9.53994ZM15.21 5.90994C15.67 7.35994 17.23 8.01994 17.51 8.04994C17.83 8.01994 19.36 7.27994 19.78 5.91994C20.01 5.18994 19.78 4.24994 19.05 4.00994C18.74 3.90994 18.32 3.96994 18.12 4.25994C17.98 4.46994 17.76 4.58994 17.51 4.59994C17.29 4.60994 17.03 4.48994 16.89 4.28994C16.66 3.95994 16.24 3.90994 15.94 3.99994C15.22 4.23994 14.98 5.17994 15.21 5.90994Z" fill="#292D32"/>
</svg>
