<svg width="24" height="24" viewBox="0 0 24 24" fill="none" xmlns="http://www.w3.org/2000/svg">
<path opacity="0.4" d="M16.1898 2H7.81976C4.17976 2 2.00977 4.17 2.00977 7.81V16.18C2.00977 19.82 4.17976 21.99 7.81976 21.99H16.1898C19.8298 21.99 21.9998 19.82 21.9998 16.18V7.81C21.9998 4.17 19.8298 2 16.1898 2Z" fill="#292D32"/>
<path d="M8.55011 14.55V10.26C9.39011 9.95001 10.0001 9.15001 10.0001 8.20001C10.0001 6.99001 9.01011 6 7.80011 6C6.59011 6 5.6001 6.99001 5.6001 8.20001C5.6001 9.15001 6.21011 9.95001 7.05011 10.26V14.55C6.29011 14.85 5.75012 15.59 5.75012 16.45C5.75012 17.58 6.67011 18.5 7.80011 18.5C8.93011 18.5 9.8501 17.58 9.8501 16.45C9.8501 15.59 9.31011 14.85 8.55011 14.55Z" fill="#292D32"/>
<path d="M17.5003 14.55V8.74999C17.5003 7.78999 16.7103 6.99999 15.7503 6.99999H14.6203L14.8303 6.82998C15.1503 6.55998 15.1903 6.08998 14.9303 5.76998C14.6603 5.44998 14.1903 5.41 13.8703 5.67L12.0703 7.17C11.9003 7.31 11.8003 7.51999 11.8003 7.74999C11.8003 7.97999 11.9003 8.17998 12.0703 8.32998L13.8703 9.82998C14.0103 9.94998 14.1803 9.99999 14.3503 9.99999C14.5603 9.99999 14.7803 9.91 14.9303 9.73C15.2003 9.41 15.1503 8.94 14.8303 8.67L14.6203 8.49999H15.7503C15.8903 8.49999 16.0003 8.60999 16.0003 8.74999V14.55C15.2403 14.85 14.7003 15.59 14.7003 16.45C14.7003 17.58 15.6203 18.5 16.7503 18.5C17.8803 18.5 18.8003 17.58 18.8003 16.45C18.8003 15.59 18.2603 14.85 17.5003 14.55Z" fill="#292D32"/>
</svg>
