<svg width="24" height="24" viewBox="0 0 24 24" fill="none" xmlns="http://www.w3.org/2000/svg">
<path opacity="0.4" d="M16.19 2H7.81C4.17 2 2 4.17 2 7.81V16.18C2 19.83 4.17 22 7.81 22H16.18C19.82 22 21.99 19.83 21.99 16.19V7.81C22 4.17 19.83 2 16.19 2Z" fill="#292D32"/>
<path d="M16.66 11.25L15.04 12.27L11.74 8.98001L12.77 7.35001C13.24 6.61001 14.2 6.57001 14.9 7.27001L16.75 9.12001C17.41 9.77001 17.37 10.8 16.66 11.25Z" fill="#292D32"/>
<path opacity="0.6" d="M13.5801 16.62L8.51007 17.22C8.29007 17.25 8.09007 17.24 7.90007 17.18C7.35007 17.06 6.96007 16.67 6.84007 16.12C6.78007 15.93 6.77007 15.73 6.80007 15.51L7.39007 10.44C7.55007 9.16999 8.01007 8.75999 9.35007 8.83999L11.7401 8.97999L15.0401 12.27L15.1801 14.67C15.3101 16.01 14.8501 16.47 13.5801 16.62Z" fill="#292D32"/>
<path d="M9.88009 15.2L7.90009 17.18C7.35009 17.06 6.96009 16.67 6.84009 16.12L8.81009 14.14C9.11009 13.85 9.58009 13.85 9.88009 14.14C10.1701 14.43 10.1701 14.91 9.88009 15.2Z" fill="#292D32"/>
</svg>
