<svg width="24" height="24" viewBox="0 0 24 24" fill="none" xmlns="http://www.w3.org/2000/svg">
<path opacity="0.4" d="M16.1901 8.86002C15.8001 8.86002 15.4901 8.55002 15.4901 8.16002V6.88002C15.4901 5.90002 15.0701 4.96002 14.3501 4.30002C13.6101 3.63002 12.6601 3.32002 11.6601 3.41002C9.98011 3.57002 8.51011 5.28002 8.51011 7.06002V7.96002C8.51011 8.35002 8.20011 8.66002 7.81011 8.66002C7.42011 8.66002 7.11011 8.35002 7.11011 7.96002V7.06002C7.11011 4.56002 9.13011 2.25002 11.5201 2.02002C12.9101 1.89002 14.2501 2.33002 15.2801 3.27002C16.3001 4.19002 16.8801 5.51002 16.8801 6.88002V8.16002C16.8801 8.55002 16.5701 8.86002 16.1901 8.86002Z" fill="#292D32"/>
<path d="M19.96 8.95996C19.12 8.02996 17.74 7.57996 15.72 7.57996H8.27999C6.25999 7.57996 4.87999 8.02996 4.03999 8.95996C3.06999 10.04 3.09999 11.48 3.20999 12.48L3.90999 18.05C4.11999 20 4.90999 22 9.20999 22H14.79C19.09 22 19.88 20 20.09 18.06L20.79 12.47C20.9 11.48 20.93 10.04 19.96 8.95996ZM12 18.58C9.90999 18.58 8.20999 16.88 8.20999 14.79C8.20999 12.7 9.90999 11 12 11C14.09 11 15.79 12.7 15.79 14.79C15.79 16.88 14.09 18.58 12 18.58Z" fill="#292D32"/>
<path opacity="0.4" d="M12 18.58C14.0931 18.58 15.79 16.8832 15.79 14.79C15.79 12.6968 14.0931 11 12 11C9.9068 11 8.20996 12.6968 8.20996 14.79C8.20996 16.8832 9.9068 18.58 12 18.58Z" fill="#292D32"/>
<path d="M13.6001 15.31L13.0701 14.78L13.5701 14.28C13.8601 13.99 13.8601 13.51 13.5701 13.22C13.2801 12.93 12.8001 12.93 12.5101 13.22L12.0101 13.72L11.4801 13.19C11.1901 12.9 10.7101 12.9 10.4201 13.19C10.1301 13.48 10.1301 13.96 10.4201 14.25L10.9501 14.78L10.4001 15.33C10.1101 15.62 10.1101 16.1 10.4001 16.39C10.5501 16.54 10.7401 16.61 10.9301 16.61C11.1201 16.61 11.3101 16.54 11.4601 16.39L12.0101 15.84L12.5401 16.37C12.6901 16.52 12.8801 16.59 13.0701 16.59C13.2601 16.59 13.4501 16.52 13.6001 16.37C13.8901 16.08 13.8901 15.61 13.6001 15.31Z" fill="#292D32"/>
</svg>
