<svg width="24" height="24" viewBox="0 0 24 24" fill="none" xmlns="http://www.w3.org/2000/svg">
<path opacity="0.4" d="M12 22C17.5228 22 22 17.5228 22 12C22 6.47715 17.5228 2 12 2C6.47715 2 2 6.47715 2 12C2 17.5228 6.47715 22 12 22Z" fill="#292D32"/>
<path fill-rule="evenodd" clip-rule="evenodd" d="M12.1187 6.00222C12.6994 5.72433 13.2668 6.01776 13.6101 6.30383L15.6682 8.0222C15.6687 8.02262 15.6692 8.02305 15.6697 8.02347C16.3051 8.55076 16.3364 9.48524 15.7138 10.0455L13.5768 12.005L15.7138 13.9644C16.3364 14.5247 16.3051 15.4592 15.6697 15.9865C15.6692 15.9869 15.6687 15.9874 15.6682 15.9878L13.6107 17.7057L13.609 17.7071C13.2658 17.992 12.7037 18.2761 12.1283 18.0068C11.5514 17.7368 11.41 17.121 11.41 16.67V13.9918L9.09684 16.1128C8.79154 16.3927 8.31711 16.3722 8.03717 16.0669C7.75724 15.7616 7.7778 15.2871 8.0831 15.0072L11.3573 12.005L8.0831 9.0028C7.7778 8.72286 7.75724 8.24844 8.03717 7.94313C8.31711 7.63783 8.79154 7.61727 9.09684 7.89721L11.41 10.0182V7.33999C11.41 6.89704 11.544 6.27727 12.1187 6.00222ZM12.91 13.4286L14.5699 14.9507L12.91 16.3366V13.4286ZM12.91 10.5813V7.67336L14.5699 9.05932L12.91 10.5813Z" fill="#292D32"/>
</svg>
